<?xml version="1.0" encoding="utf-8"?>
<!-- Generator: Adobe Illustrator 21.1.0, SVG Export Plug-In . SVG Version: 6.00 Build 0)  -->
<svg version="1.1" id="Layer_1" xmlns="http://www.w3.org/2000/svg" xmlns:xlink="http://www.w3.org/1999/xlink" x="0px" y="0px"
	 viewBox="0 0 20 20" style="enable-background:new 0 0 20 20;" xml:space="preserve">
<style type="text/css">
	.st0{opacity:0.33;}
	.st1{fill:#EDEDED;}
</style>
<g>
	<g id="_x33_rd_1_" class="st0">
		<path d="M13.318,3.899c-0.013-0.01-0.028-0.02-0.043-0.029c-0.031-0.018-3.976-2.316-3.976-2.316
			c-0.123-0.072-0.276-0.072-0.399,0L4.927,3.869C4.911,3.878,4.898,3.887,4.881,3.9C4.869,3.91,4.859,3.919,4.842,3.936
			C4.834,3.944,4.825,3.955,4.806,3.977l-0.049,0.09C4.753,4.079,4.749,4.091,4.743,4.112C4.735,4.145,4.73,4.176,4.734,4.178
			L4.73,8.614l-3.784,2.204c-0.013,0.009-0.025,0.016-0.043,0.03c-0.01,0.009-0.02,0.017-0.019,0.017L0.835,10.92
			c-0.007,0.009-0.012,0.017-0.019,0.028l-0.01,0.017c-0.008,0.013-0.014,0.026-0.018,0.037l-0.019,0.056
			c-0.008,0.029-0.012,0.061-0.012,0.1v4.63c0,0.141,0.075,0.272,0.196,0.342l3.943,2.297l0.039,0.023
			c0.013,0.007,0.027,0.013,0.04,0.019c0.016,0.007,0.032,0.011,0.047,0.016l0.052,0.01c0.017,0.003,0.035,0.004,0.052,0.004
			l0.065-0.006l0.084-0.023c0.014-0.006,0.029-0.012,0.042-0.02l3.784-2.203l3.761,2.191l0.029,0.017
			c0.011,0.006,0.023,0.01,0.032,0.015l0.062,0.02l0.038,0.007l0.052,0.003c0.017,0,0.035-0.002,0.066-0.006l0.087-0.025
			c0.014-0.006,0.029-0.013,0.042-0.02l3.98-2.318c0.121-0.07,0.197-0.201,0.197-0.342v-4.634c0-0.029-0.004-0.06-0.014-0.099
			l-0.034-0.087c-0.002-0.004-0.004-0.008-0.006-0.01l-0.087-0.103c-0.007-0.007-0.011-0.011-0.011-0.011s-0.001,0,0,0.001
			l-0.045-0.03l-0.003,0.001c-0.113-0.069-0.686-0.402-3.774-2.202l-0.001-4.411c-0.001-0.029-0.004-0.059-0.02-0.117l-0.034-0.076
			C13.411,4,13.404,3.988,13.402,3.988h-0.001c0,0-0.011-0.022-0.017-0.028C13.318,3.899,13.318,3.899,13.318,3.899z M8.705,11.846
			v3.715l-3.183,1.854v-3.716L8.705,11.846z M4.73,13.699v3.716l-3.183-1.854v-3.716L4.73,13.699z M8.315,11.157l-3.189,1.857
			l-3.189-1.857l3.189-1.858L8.315,11.157z M8.705,6.754v3.715L5.522,8.614V4.899L8.705,6.754z M12.29,4.21L9.101,6.068L5.912,4.21
			l3.189-1.857L12.29,4.21z M16.264,11.157l-3.189,1.857l-3.189-1.857l3.189-1.858L16.264,11.157z M12.679,13.699v3.716
			l-3.184-1.854v-3.716L12.679,13.699z M9.495,10.47V6.754l3.183-1.855v3.715L9.495,10.47z M16.654,11.846v3.715l-3.182,1.854
			v-3.716L16.654,11.846z M5.126,18.371L5.126,18.371L5.126,18.371L5.126,18.371z"/>
	</g>
	<g id="_x33_rd">
		<path class="st1" d="M14.217,3.899c-0.013-0.01-0.028-0.02-0.043-0.029c-0.031-0.018-3.976-2.316-3.976-2.316
			c-0.123-0.072-0.276-0.072-0.399,0L5.826,3.869C5.81,3.878,5.797,3.887,5.781,3.9C5.768,3.91,5.758,3.919,5.742,3.936
			C5.733,3.944,5.725,3.955,5.706,3.977l-0.049,0.09C5.652,4.079,5.648,4.091,5.643,4.112C5.634,4.144,5.63,4.176,5.633,4.178
			L5.629,8.614l-3.784,2.204c-0.013,0.009-0.025,0.016-0.043,0.03c-0.01,0.009-0.02,0.017-0.019,0.017L1.735,10.92
			c-0.007,0.009-0.012,0.017-0.019,0.028l-0.01,0.017c-0.008,0.013-0.014,0.026-0.018,0.037l-0.019,0.056
			c-0.008,0.029-0.012,0.061-0.012,0.1v4.63c0,0.141,0.075,0.272,0.196,0.342l3.943,2.297l0.039,0.023
			c0.013,0.007,0.027,0.013,0.04,0.019c0.016,0.007,0.032,0.011,0.047,0.016l0.052,0.01c0.017,0.003,0.035,0.004,0.052,0.004
			l0.065-0.006l0.085-0.024c0.014-0.006,0.029-0.012,0.042-0.02L10,16.246l3.761,2.191l0.029,0.017
			c0.011,0.006,0.023,0.01,0.032,0.015l0.062,0.02l0.038,0.007l0.051,0.004c0.017,0,0.035-0.002,0.066-0.006l0.087-0.025
			c0.014-0.006,0.029-0.013,0.042-0.02l3.98-2.318c0.121-0.07,0.197-0.201,0.197-0.342v-4.634c0-0.029-0.004-0.06-0.014-0.099
			l-0.034-0.087c-0.002-0.004-0.004-0.008-0.006-0.01l-0.087-0.103c-0.007-0.007-0.011-0.011-0.011-0.011s-0.001,0,0,0.001
			l-0.045-0.03l-0.003,0.001c-0.113-0.069-0.686-0.402-3.774-2.202L14.37,4.204c-0.001-0.029-0.004-0.059-0.02-0.117l-0.034-0.076
			C14.309,4,14.302,3.988,14.3,3.988h-0.001c0,0-0.011-0.022-0.017-0.028C14.217,3.899,14.217,3.899,14.217,3.899z M9.604,11.846
			v3.715l-3.183,1.854v-3.716L9.604,11.846z M5.629,13.699v3.716l-3.183-1.854v-3.716L5.629,13.699z M9.214,11.157l-3.189,1.857
			l-3.189-1.857l3.189-1.858L9.214,11.157z M9.604,6.754v3.715L6.421,8.614V4.899L9.604,6.754z M13.189,4.21L10,6.068L6.811,4.21
			L10,2.353L13.189,4.21z M17.163,11.157l-3.189,1.857l-3.189-1.857l3.189-1.858L17.163,11.157z M13.578,13.699v3.716l-3.183-1.854
			v-3.716L13.578,13.699z M10.395,10.47V6.754l3.183-1.855v3.715L10.395,10.47z M17.553,11.846v3.715l-3.182,1.854v-3.716
			L17.553,11.846z M6.025,18.371L6.025,18.371L6.025,18.371L6.025,18.371z"/>
	</g>
	<g id="Layer_1_1_">
	</g>
</g>
</svg>
