<?xml version="1.0" encoding="utf-8"?>
<!-- Generator: Adobe Illustrator 21.1.0, SVG Export Plug-In . SVG Version: 6.00 Build 0)  -->
<svg version="1.1" id="Layer_1" xmlns="http://www.w3.org/2000/svg" xmlns:xlink="http://www.w3.org/1999/xlink" x="0px" y="0px"
	 viewBox="0 0 20 20" style="enable-background:new 0 0 20 20;" xml:space="preserve">
<style type="text/css">
	.st0{opacity:0.33;}
	.st1{fill:#EDEDED;}
</style>
<g id="Layer_1_2_" class="st0">
</g>
<g>
	<g id="application-security_1_" class="st0">
		<g>
			<g>
				<path d="M16.29,4.285H1.892c-0.698,0-1.266,0.568-1.266,1.266v10.511c0,0.698,0.568,1.266,1.266,1.266H16.29
					c0.698,0,1.266-0.568,1.266-1.266V5.551C17.555,4.853,16.987,4.285,16.29,4.285z M1.892,5.134H16.29
					c0.229,0,0.417,0.187,0.417,0.417v0.853H1.475V5.551C1.475,5.321,1.662,5.134,1.892,5.134z M16.29,16.479H1.892
					c-0.23,0-0.417-0.188-0.417-0.417V7.04h15.232v9.022C16.706,16.291,16.52,16.479,16.29,16.479z"/>
				<path d="M3.004,11.473l0.262,0.262c0.036,0.037,0.079,0.055,0.131,0.055c0.052,0,0.095-0.018,0.131-0.054l0.262-0.262
					L5.794,9.47C5.83,9.434,5.848,9.39,5.848,9.339S5.83,9.243,5.794,9.208L5.531,8.945C5.495,8.91,5.452,8.891,5.401,8.891
					c-0.052,0-0.095,0.018-0.131,0.054l-1.873,1.875L2.83,10.251c-0.036-0.036-0.08-0.054-0.131-0.054
					c-0.052,0-0.095,0.018-0.131,0.054l-0.262,0.262c-0.036,0.036-0.054,0.08-0.054,0.131c0,0.052,0.018,0.095,0.054,0.131
					L3.004,11.473z"/>
				<path d="M7.89,11.473l0.262,0.262c0.036,0.037,0.079,0.055,0.131,0.055s0.095-0.018,0.131-0.054l0.262-0.262l2.004-2.004
					c0.036-0.036,0.054-0.08,0.054-0.131s-0.018-0.095-0.054-0.131l-0.262-0.262c-0.036-0.036-0.079-0.054-0.131-0.054
					s-0.095,0.018-0.131,0.054l-1.873,1.874l-0.567-0.569c-0.036-0.036-0.08-0.054-0.131-0.054c-0.051,0-0.095,0.018-0.131,0.054
					l-0.262,0.262c-0.036,0.036-0.054,0.08-0.054,0.131c0,0.052,0.018,0.095,0.054,0.131L7.89,11.473z"/>
				<path d="M15.457,13.339h-3.269c-0.175,0-0.319,0.142-0.319,0.318c0,0.175,0.142,0.319,0.319,0.319h3.269
					c0.175,0,0.319-0.142,0.319-0.319C15.775,13.482,15.632,13.339,15.457,13.339z"/>
				<path d="M15.457,14.841h-3.269c-0.175,0-0.319,0.142-0.319,0.318s0.142,0.319,0.319,0.319h3.269
					c0.175,0,0.319-0.142,0.319-0.319C15.776,14.982,15.632,14.841,15.457,14.841z"/>
				<path d="M10.57,13.339H7.302c-0.175,0-0.319,0.142-0.319,0.318c0,0.175,0.142,0.319,0.319,0.319h3.268
					c0.175,0,0.319-0.142,0.319-0.319C10.888,13.482,10.746,13.339,10.57,13.339z"/>
				<path d="M10.57,14.841H7.302c-0.175,0-0.319,0.142-0.319,0.318s0.142,0.319,0.319,0.319h3.268c0.175,0,0.319-0.142,0.319-0.319
					C10.889,14.982,10.746,14.841,10.57,14.841z"/>
				<path d="M5.684,13.339H2.416c-0.175,0-0.319,0.142-0.319,0.318c0,0.175,0.142,0.319,0.319,0.319h3.269
					c0.175,0,0.319-0.142,0.319-0.319C6.003,13.482,5.859,13.339,5.684,13.339z"/>
				<path d="M5.684,14.841H2.416c-0.175,0-0.319,0.142-0.319,0.318s0.142,0.319,0.319,0.319h3.269c0.175,0,0.319-0.142,0.319-0.319
					C6.004,14.982,5.859,14.841,5.684,14.841z"/>
				<path d="M12.781,12.133h2.083c0.456,0,0.828-0.372,0.828-0.828V9.224c0-0.456-0.372-0.828-0.828-0.828h-2.083
					c-0.456,0-0.828,0.372-0.828,0.828v2.082C11.953,11.763,12.325,12.133,12.781,12.133z M12.59,9.224
					c0-0.104,0.088-0.191,0.191-0.191h2.083c0.104,0,0.191,0.088,0.191,0.191v2.082c0,0.104-0.088,0.191-0.191,0.191h-2.083
					c-0.104,0-0.191-0.088-0.191-0.191C12.59,11.306,12.59,9.224,12.59,9.224z"/>
			</g>
		</g>
	</g>
	<g id="application-security">
		<g>
			<g>
				<path class="st1" d="M17.199,3.479H2.801c-0.698,0-1.266,0.568-1.266,1.266v10.511c0,0.698,0.568,1.266,1.266,1.266h14.398
					c0.698,0,1.266-0.568,1.266-1.266V4.744C18.465,4.046,17.897,3.479,17.199,3.479z M2.801,4.328h14.398
					c0.229,0,0.417,0.187,0.417,0.417v0.853H2.384V4.744C2.384,4.514,2.571,4.328,2.801,4.328z M17.199,15.672H2.801
					c-0.23,0-0.417-0.188-0.417-0.417V6.234h15.232v9.022C17.616,15.485,17.429,15.672,17.199,15.672z"/>
				<path class="st1" d="M3.913,10.666l0.262,0.262c0.036,0.037,0.079,0.055,0.131,0.055s0.095-0.018,0.131-0.054L4.7,10.667
					l2.004-2.004c0.036-0.036,0.054-0.08,0.054-0.131c0-0.051-0.018-0.095-0.054-0.131L6.441,8.139
					C6.405,8.103,6.361,8.084,6.31,8.084c-0.052,0-0.095,0.018-0.131,0.054l-1.873,1.875L3.74,9.444
					C3.704,9.408,3.659,9.39,3.608,9.39c-0.052,0-0.095,0.018-0.131,0.054L3.215,9.706c-0.036,0.036-0.054,0.08-0.054,0.131
					c0,0.052,0.018,0.095,0.054,0.131L3.913,10.666z"/>
				<path class="st1" d="M8.799,10.666l0.262,0.262c0.036,0.037,0.079,0.055,0.131,0.055s0.095-0.018,0.131-0.054l0.262-0.262
					l2.004-2.004c0.036-0.036,0.054-0.08,0.054-0.131c0-0.051-0.018-0.095-0.054-0.131l-0.262-0.262
					c-0.036-0.036-0.079-0.054-0.131-0.054s-0.095,0.018-0.131,0.054l-1.873,1.874L8.626,9.444C8.59,9.408,8.546,9.39,8.495,9.39
					S8.4,9.408,8.364,9.444L8.101,9.706c-0.036,0.036-0.054,0.08-0.054,0.131c0,0.052,0.018,0.095,0.054,0.131L8.799,10.666z"/>
				<path class="st1" d="M16.366,12.532h-3.269c-0.175,0-0.319,0.142-0.319,0.318s0.142,0.319,0.319,0.319h3.269
					c0.175,0,0.319-0.142,0.319-0.319C16.684,12.675,16.542,12.532,16.366,12.532z"/>
				<path class="st1" d="M16.366,14.034h-3.269c-0.175,0-0.319,0.142-0.319,0.318s0.142,0.319,0.319,0.319h3.269
					c0.175,0,0.319-0.142,0.319-0.319C16.685,14.176,16.542,14.034,16.366,14.034z"/>
				<path class="st1" d="M11.48,12.532H8.212c-0.175,0-0.319,0.142-0.319,0.318s0.142,0.319,0.319,0.319h3.268
					c0.175,0,0.319-0.142,0.319-0.319C11.798,12.675,11.655,12.532,11.48,12.532z"/>
				<path class="st1" d="M11.48,14.034H8.212c-0.175,0-0.319,0.142-0.319,0.318s0.142,0.319,0.319,0.319h3.268
					c0.175,0,0.319-0.142,0.319-0.319C11.799,14.176,11.655,14.034,11.48,14.034z"/>
				<path class="st1" d="M6.593,12.532H3.325c-0.175,0-0.319,0.142-0.319,0.318s0.142,0.319,0.319,0.319h3.269
					c0.175,0,0.319-0.142,0.319-0.319C6.912,12.675,6.769,12.532,6.593,12.532z"/>
				<path class="st1" d="M6.593,14.034H3.325c-0.175,0-0.319,0.142-0.319,0.318s0.142,0.319,0.319,0.319h3.269
					c0.175,0,0.319-0.142,0.319-0.319C6.913,14.176,6.769,14.034,6.593,14.034z"/>
				<path class="st1" d="M13.69,11.327h2.083c0.456,0,0.828-0.372,0.828-0.828V8.417c0-0.456-0.372-0.828-0.828-0.828H13.69
					c-0.456,0-0.828,0.372-0.828,0.828v2.082C12.862,10.956,13.234,11.327,13.69,11.327z M13.499,8.417
					c0-0.104,0.088-0.191,0.191-0.191h2.083c0.104,0,0.191,0.088,0.191,0.191v2.082c0,0.104-0.088,0.191-0.191,0.191H13.69
					c-0.104,0-0.191-0.088-0.191-0.191C13.499,10.499,13.499,8.417,13.499,8.417z"/>
			</g>
		</g>
	</g>
	<g id="Layer_1_1_">
	</g>
</g>
</svg>
