<?xml version="1.0" encoding="utf-8"?>
<!-- Generator: Adobe Illustrator 21.1.0, SVG Export Plug-In . SVG Version: 6.00 Build 0)  -->
<svg version="1.1" id="Layer_1" xmlns="http://www.w3.org/2000/svg" xmlns:xlink="http://www.w3.org/1999/xlink" x="0px" y="0px"
	 viewBox="0 0 20 20" style="enable-background:new 0 0 20 20;" xml:space="preserve">
<style type="text/css">
	.st0{opacity:0.33;}
	.st1{fill:#EDEDED;}
</style>
<g id="Layer_1_3_" class="st0">
	<g id="Layer_1_4_">
	</g>
</g>
<g class="st0">
	<path d="M12.594,7.203c-0.094-0.105-0.228-0.167-0.368-0.171c-0.142-0.004-0.281,0.051-0.381,0.151l-0.98,0.98
		c-0.191,0.191-0.204,0.49-0.03,0.696c0.372,0.442,0.577,1.006,0.577,1.588s-0.205,1.146-0.577,1.588
		c-0.081,0.097-0.122,0.214-0.122,0.332c0,0.132,0.051,0.264,0.152,0.365l0.98,0.98c0.1,0.1,0.239,0.155,0.381,0.151
		c0.141-0.004,0.275-0.066,0.368-0.171c0.794-0.892,1.232-2.044,1.232-3.243C13.826,9.247,13.389,8.094,12.594,7.203z
		 M12.211,13.346l-0.98-0.979l0,0c0.451-0.535,0.699-1.216,0.699-1.92c0-0.704-0.248-1.385-0.698-1.919l0.978-0.981
		c0.709,0.797,1.1,1.828,1.1,2.9S12.919,12.549,12.211,13.346z"/>
	<path d="M15.28,4.009c-0.105-0.112-0.247-0.175-0.4-0.178c-0.152-0.003-0.296,0.056-0.403,0.163l-1.061,1.061
		c-0.213,0.213-0.22,0.553-0.015,0.774c1.165,1.256,1.807,2.895,1.807,4.616s-0.641,3.36-1.807,4.616
		c-0.1,0.108-0.149,0.244-0.149,0.379c0,0.143,0.055,0.286,0.164,0.396l1.061,1.061c0.108,0.108,0.251,0.166,0.403,0.163
		c0.153-0.003,0.295-0.065,0.4-0.177C18.669,13.274,18.669,7.618,15.28,4.009z M14.872,16.5L14.872,16.5l-1.063-1.059
		c1.262-1.359,1.956-3.134,1.956-4.996S15.07,6.809,13.81,5.45l1.062-1.06C18.061,7.786,18.061,13.106,14.872,16.5z"/>
	<path d="M7.231,10.446c0-0.582,0.205-1.146,0.577-1.588c0.174-0.206,0.161-0.505-0.03-0.696l-0.98-0.98
		c-0.1-0.1-0.239-0.155-0.381-0.15C6.276,7.036,6.142,7.098,6.048,7.203c-0.793,0.892-1.231,2.044-1.231,3.243
		s0.437,2.352,1.232,3.243c0.094,0.105,0.228,0.167,0.368,0.171c0.142,0.004,0.281-0.051,0.381-0.151l0.98-0.98
		c0.101-0.101,0.152-0.232,0.152-0.365c0-0.117-0.041-0.235-0.122-0.332C7.436,11.592,7.231,11.028,7.231,10.446z M7.413,12.366
		l-0.98,0.979c-0.708-0.796-1.099-1.826-1.099-2.9c0-1.073,0.391-2.103,1.1-2.9l0.978,0.981c-0.45,0.535-0.697,1.216-0.697,1.919
		S6.963,11.831,7.413,12.366L7.413,12.366z"/>
	<path d="M3.437,10.446c0-1.721,0.641-3.36,1.807-4.616c0.205-0.221,0.198-0.561-0.015-0.774L4.168,3.995
		C4.06,3.888,3.917,3.83,3.765,3.832c-0.153,0.003-0.296,0.065-0.4,0.178c-3.391,3.61-3.39,9.264,0,12.874
		c0.105,0.111,0.247,0.174,0.4,0.177c0.152,0.003,0.296-0.056,0.403-0.163l1.061-1.061c0.11-0.11,0.164-0.252,0.164-0.396
		c0-0.136-0.05-0.271-0.149-0.379C4.078,13.806,3.437,12.167,3.437,10.446z M3.773,16.501L3.773,16.501
		c-3.189-3.396-3.189-8.715-0.001-12.11l1.062,1.06C3.573,6.81,2.878,8.584,2.878,10.446s0.695,3.636,1.956,4.996L3.773,16.501z"/>
	<path d="M8.574,9.698c-0.206,0.207-0.309,0.477-0.309,0.748c0,0.271,0.103,0.541,0.309,0.748c0.199,0.199,0.466,0.31,0.748,0.31
		c0.282,0,0.548-0.111,0.748-0.31c0.199-0.199,0.31-0.466,0.31-0.748c0-0.282-0.111-0.548-0.31-0.748
		C9.657,9.286,8.987,9.286,8.574,9.698z"/>
</g>
<g id="Layer_1_2_">
	<g id="Layer_1_1_">
	</g>
</g>
<g>
	<path class="st1" d="M13.273,6.757c-0.094-0.105-0.228-0.167-0.368-0.171c-0.142-0.004-0.281,0.051-0.381,0.151l-0.98,0.98
		c-0.191,0.191-0.204,0.49-0.03,0.696c0.372,0.442,0.577,1.006,0.577,1.588c0,0.582-0.205,1.146-0.577,1.588
		c-0.081,0.097-0.122,0.214-0.122,0.332c0,0.132,0.051,0.264,0.152,0.365l0.98,0.98c0.1,0.1,0.239,0.155,0.381,0.151
		c0.141-0.004,0.275-0.066,0.368-0.171c0.794-0.892,1.232-2.044,1.232-3.243C14.504,8.801,14.067,7.648,13.273,6.757z M12.889,12.9
		l-0.98-0.979l0,0c0.451-0.535,0.699-1.216,0.699-1.92c0-0.704-0.248-1.385-0.698-1.919L12.888,7.1c0.709,0.797,1.1,1.828,1.1,2.9
		S13.598,12.103,12.889,12.9z"/>
	<path class="st1" d="M15.958,3.563c-0.105-0.112-0.247-0.175-0.4-0.178c-0.152-0.003-0.296,0.056-0.403,0.163L14.094,4.61
		c-0.213,0.213-0.22,0.553-0.015,0.774c1.165,1.256,1.807,2.895,1.807,4.616s-0.641,3.36-1.807,4.616
		c-0.1,0.108-0.149,0.244-0.149,0.379c0,0.143,0.055,0.286,0.164,0.396l1.061,1.061c0.108,0.108,0.251,0.166,0.403,0.163
		c0.153-0.003,0.295-0.065,0.4-0.177C19.348,12.828,19.348,7.172,15.958,3.563z M15.55,16.054L15.55,16.054l-1.063-1.059
		c1.262-1.359,1.956-3.134,1.956-4.996s-0.695-3.636-1.955-4.995l1.062-1.06C18.739,7.34,18.739,12.66,15.55,16.054z"/>
	<path class="st1" d="M7.909,10c0-0.582,0.205-1.146,0.577-1.588c0.174-0.206,0.161-0.505-0.03-0.696l-0.98-0.98
		c-0.1-0.1-0.239-0.155-0.381-0.15C6.954,6.59,6.82,6.652,6.727,6.757C5.933,7.648,5.496,8.801,5.496,10s0.437,2.352,1.232,3.243
		c0.094,0.105,0.228,0.167,0.368,0.171c0.142,0.004,0.281-0.051,0.381-0.151l0.98-0.98c0.101-0.101,0.152-0.232,0.152-0.365
		c0-0.117-0.041-0.235-0.122-0.332C8.114,11.146,7.909,10.582,7.909,10z M8.091,11.92L7.111,12.9
		c-0.708-0.796-1.099-1.826-1.099-2.9c0-1.073,0.391-2.103,1.1-2.9L8.09,8.081C7.641,8.615,7.393,9.297,7.393,10
		S7.641,11.385,8.091,11.92L8.091,11.92z"/>
	<path class="st1" d="M4.115,10c0-1.721,0.641-3.36,1.807-4.616C6.127,5.163,6.12,4.823,5.907,4.61L4.846,3.549
		C4.739,3.442,4.595,3.384,4.443,3.386c-0.153,0.003-0.296,0.065-0.4,0.178c-3.391,3.61-3.39,9.264,0,12.874
		c0.105,0.111,0.247,0.174,0.4,0.177c0.152,0.003,0.296-0.056,0.403-0.163l1.061-1.061c0.11-0.11,0.164-0.252,0.164-0.396
		c0-0.136-0.05-0.271-0.149-0.379C4.756,13.36,4.115,11.721,4.115,10z M4.451,16.055L4.451,16.055
		C1.262,12.659,1.262,7.34,4.45,3.945l1.062,1.06C4.251,6.364,3.556,8.138,3.556,10s0.695,3.636,1.956,4.996L4.451,16.055z"/>
	<path class="st1" d="M9.252,9.252C9.046,9.459,8.943,9.729,8.943,10c0,0.271,0.103,0.541,0.309,0.748
		c0.199,0.199,0.466,0.31,0.748,0.31s0.548-0.111,0.748-0.31c0.199-0.199,0.31-0.466,0.31-0.748s-0.111-0.548-0.31-0.748
		C10.335,8.84,9.665,8.84,9.252,9.252z"/>
</g>
</svg>
