<?xml version="1.0" encoding="utf-8"?>
<!-- Generator: Adobe Illustrator 21.1.0, SVG Export Plug-In . SVG Version: 6.00 Build 0)  -->
<svg version="1.1" id="Layer_1" xmlns="http://www.w3.org/2000/svg" xmlns:xlink="http://www.w3.org/1999/xlink" x="0px" y="0px"
	 viewBox="0 0 20 20" style="enable-background:new 0 0 20 20;" xml:space="preserve">
<style type="text/css">
	.st0{opacity:0.33;}
	.st1{fill:#EDEDED;}
</style>
<g id="Layer_1_4_" class="st0">
</g>
<g id="Layer_1_3_" class="st0">
</g>
<g class="st0">
	<path d="M13.568,10.092l0.015,0.003h-6.34l1.993-1.998c0.098-0.098,0.151-0.229,0.151-0.369c0-0.139-0.054-0.27-0.151-0.368
		l-0.31-0.31C8.828,6.954,8.698,6.899,8.56,6.899c-0.139,0-0.269,0.054-0.367,0.151l-3.416,3.417
		c-0.098,0.098-0.151,0.229-0.151,0.367c0,0.139,0.054,0.27,0.151,0.368l3.417,3.417c0.098,0.098,0.228,0.151,0.367,0.151
		c0.138,0,0.269-0.054,0.366-0.151l0.31-0.31c0.098-0.098,0.151-0.228,0.151-0.366s-0.054-0.261-0.151-0.359L7.22,11.575h6.355
		c0.286,0,0.526-0.246,0.526-0.531v-0.439C14.101,10.319,13.854,10.092,13.568,10.092z"/>
	<path d="M9.358,2.347c-4.68,0-8.488,3.808-8.488,8.488s3.808,8.488,8.488,8.488s8.488-3.808,8.488-8.488S14.038,2.347,9.358,2.347z
		 M9.358,18.573c-4.267,0-7.738-3.471-7.738-7.738s3.471-7.738,7.738-7.738c4.267,0,7.738,3.471,7.738,7.738
		S13.625,18.573,9.358,18.573z"/>
</g>
<g id="Layer_1_2_" class="st0">
</g>
<g id="Layer_1_1_">
</g>
<g>
	<path class="st1" d="M14.204,9.257l0.015,0.003h-6.34l1.993-1.998c0.098-0.098,0.151-0.229,0.151-0.369
		c0-0.139-0.054-0.27-0.151-0.368l-0.31-0.31C9.464,6.119,9.334,6.064,9.196,6.064c-0.139,0-0.269,0.054-0.367,0.151L5.413,9.632
		C5.315,9.73,5.262,9.861,5.262,9.999c0,0.139,0.054,0.27,0.151,0.368l3.417,3.417c0.098,0.098,0.228,0.151,0.367,0.151
		c0.138,0,0.269-0.054,0.366-0.151l0.31-0.31c0.098-0.098,0.151-0.228,0.151-0.366s-0.054-0.261-0.151-0.359L7.856,10.74h6.355
		c0.286,0,0.526-0.246,0.526-0.531V9.77C14.737,9.484,14.49,9.257,14.204,9.257z"/>
	<path class="st1" d="M9.994,1.512c-4.68,0-8.488,3.808-8.488,8.488s3.808,8.488,8.488,8.488S18.482,14.68,18.482,10
		S14.674,1.512,9.994,1.512z M9.994,17.738c-4.267,0-7.738-3.471-7.738-7.738s3.471-7.738,7.738-7.738
		c4.267,0,7.738,3.471,7.738,7.738S14.261,17.738,9.994,17.738z"/>
</g>
</svg>
