<?xml version="1.0" encoding="utf-8"?>
<!-- Generator: Adobe Illustrator 21.1.0, SVG Export Plug-In . SVG Version: 6.00 Build 0)  -->
<svg version="1.1" id="Layer_1" xmlns="http://www.w3.org/2000/svg" xmlns:xlink="http://www.w3.org/1999/xlink" x="0px" y="0px"
	 viewBox="0 0 20 20" style="enable-background:new 0 0 20 20;" xml:space="preserve">
<style type="text/css">
	.st0{opacity:0.33;}
	.st1{fill:#EDEDED;}
</style>
<g id="bill-of-materials_1_" class="st0">
	<g>
		<path d="M2.471,11.558c0.157,0,0.283-0.127,0.283-0.283v-0.85c0-0.157-0.127-0.283-0.283-0.283s-0.283,0.127-0.283,0.283v0.85
			C2.188,11.432,2.315,11.558,2.471,11.558z"/>
		<path d="M6.033,16.638c-0.142-0.067-0.311-0.006-0.377,0.136s-0.007,0.311,0.135,0.377l0.769,0.362
			c0.142,0.067,0.311,0.006,0.377-0.136c0.066-0.142,0.006-0.311-0.136-0.377L6.033,16.638z"/>
		<path d="M16.637,11.275c-0.157,0-0.283,0.127-0.283,0.283v0.85c0,0.157,0.127,0.283,0.283,0.283c0.157,0,0.283-0.127,0.283-0.283
			v-0.85C16.921,11.402,16.795,11.275,16.637,11.275z"/>
		<path d="M16.921,9.575c0-0.157-0.127-0.283-0.283-0.283s-0.283,0.127-0.283,0.283v0.85c0,0.157,0.127,0.283,0.283,0.283
			s0.283-0.127,0.283-0.283V9.575z"/>
		<path d="M16.921,13.853v-0.595c0-0.157-0.127-0.283-0.283-0.283s-0.283,0.127-0.283,0.283v0.595
			c-0.254,0.052-0.481,0.175-0.666,0.343c-0.012-0.012-0.012-0.031-0.027-0.041l-1.7-1.133c-0.13-0.087-0.306-0.052-0.393,0.078
			c-0.087,0.13-0.052,0.306,0.078,0.393l1.7,1.133c0.006,0.004,0.012,0,0.017,0.004c-0.09,0.186-0.144,0.391-0.144,0.611
			c0,0.126,0.022,0.246,0.053,0.362l-0.915,0.431c-0.142,0.067-0.202,0.235-0.136,0.377c0.067,0.142,0.235,0.202,0.377,0.136
			l0.927-0.436c0.26,0.331,0.658,0.548,1.111,0.548c0.782,0,1.417-0.635,1.417-1.417C18.054,14.556,17.568,13.985,16.921,13.853z
			 M16.637,16.092c-0.469,0-0.85-0.381-0.85-0.85s0.381-0.85,0.85-0.85c0.469,0,0.85,0.381,0.85,0.85S17.106,16.092,16.637,16.092z"
			/>
		<path d="M13.076,16.638l-0.769,0.362c-0.142,0.067-0.202,0.235-0.136,0.377c0.067,0.142,0.235,0.202,0.377,0.136l0.769-0.362
			c0.142-0.066,0.202-0.235,0.136-0.377C13.386,16.632,13.218,16.571,13.076,16.638z"/>
		<path d="M11.282,17.482l-0.38,0.178c-0.178-0.579-0.71-1.002-1.348-1.002c-0.638,0-1.17,0.423-1.348,1.002l-0.38-0.178
			c-0.142-0.067-0.311-0.006-0.377,0.136c-0.067,0.142-0.006,0.311,0.136,0.377l0.57,0.269c0.094,0.692,0.68,1.228,1.398,1.228
			s1.304-0.535,1.398-1.228l0.571-0.269c0.142-0.067,0.202-0.235,0.136-0.377C11.592,17.476,11.423,17.416,11.282,17.482z
			 M9.554,18.925c-0.469,0-0.85-0.381-0.85-0.85s0.381-0.85,0.85-0.85s0.85,0.381,0.85,0.85S10.024,18.925,9.554,18.925z"/>
		<path d="M12.253,4.576L13.039,4.9c0.144,0.06,0.311-0.009,0.37-0.154c0.059-0.145-0.009-0.311-0.154-0.37l-0.787-0.324
			c-0.144-0.059-0.311,0.009-0.37,0.154C12.039,4.35,12.108,4.517,12.253,4.576z"/>
		<path d="M6.071,4.899l0.786-0.324C7.001,4.516,7.07,4.35,7.01,4.205C6.951,4.061,6.786,3.992,6.64,4.052L5.854,4.376
			C5.71,4.435,5.641,4.601,5.699,4.745C5.76,4.89,5.926,4.959,6.071,4.899z"/>
		<path d="M7.905,4.144l0.247-0.102c0.067,0.719,0.666,1.283,1.402,1.283s1.335-0.564,1.403-1.283l0.247,0.102
			c0.144,0.06,0.311-0.009,0.37-0.154c0.059-0.144-0.009-0.311-0.154-0.37l-0.549-0.226c-0.208-0.528-0.718-0.903-1.318-0.903
			c-0.601,0-1.11,0.375-1.317,0.903L7.688,3.62C7.544,3.68,7.475,3.845,7.534,3.991C7.593,4.135,7.759,4.204,7.905,4.144z
			 M9.554,3.058c0.469,0,0.85,0.381,0.85,0.85s-0.381,0.85-0.85,0.85s-0.85-0.381-0.85-0.85S9.085,3.058,9.554,3.058z"/>
		<path d="M12.594,8.966L9.728,7.527c-0.109-0.055-0.239-0.055-0.348,0L6.544,8.945l-0.03,0.022c-0.047,0.029-0.085,0.067-0.104,0.1
			l-0.03,0.037C6.348,9.161,6.332,9.226,6.332,9.292v3.117c0,0.147,0.082,0.281,0.215,0.348l2.834,1.418
			c0.026,0.013,0.051,0.015,0.065,0.016c0.029,0.009,0.065,0.021,0.109,0.021c0.043,0,0.079-0.011,0.109-0.02
			c0.014-0.002,0.038-0.003,0.065-0.017l2.833-1.417c0.133-0.066,0.216-0.199,0.216-0.348V9.292c0-0.064-0.016-0.126-0.045-0.182
			l-0.02-0.026C12.681,9.035,12.641,8.996,12.594,8.966z M9.164,13.195l-2.054-1.027V9.867l2.054,0.822V13.195z M9.554,10.005
			L7.671,9.252L9.555,8.31l1.883,0.942L9.554,10.005z M11.997,12.168l-2.054,1.027v-2.506l2.054-0.822V12.168z"/>
		<path d="M3.761,7.072c-0.006-0.004-0.012,0-0.017-0.004c0.089-0.185,0.143-0.39,0.143-0.61c0-0.216-0.052-0.419-0.139-0.603
			L4.76,5.438c0.145-0.06,0.213-0.225,0.154-0.37C4.855,4.925,4.689,4.856,4.544,4.915L3.495,5.347
			C3.461,5.361,3.449,5.394,3.423,5.418c-0.25-0.231-0.583-0.376-0.952-0.376c-0.782,0-1.417,0.635-1.417,1.417
			c0,0.686,0.486,1.257,1.133,1.388v0.878c0,0.157,0.127,0.283,0.283,0.283s0.283-0.127,0.283-0.283V7.847
			C3.009,7.795,3.235,7.672,3.42,7.504c0.012,0.011,0.012,0.03,0.026,0.041l1.7,1.133C5.277,8.765,5.453,8.73,5.54,8.599
			c0.087-0.13,0.052-0.307-0.078-0.394L3.761,7.072z M2.471,7.308c-0.469,0-0.85-0.381-0.85-0.85s0.381-0.85,0.85-0.85
			s0.85,0.381,0.85,0.85C3.321,6.928,2.941,7.308,2.471,7.308z"/>
		<path d="M13.961,8.678l1.7-1.133c0.015-0.009,0.015-0.028,0.027-0.041c0.185,0.168,0.411,0.292,0.666,0.343v0.878
			c0,0.157,0.127,0.283,0.283,0.283c0.157,0,0.283-0.127,0.283-0.283V7.847c0.647-0.131,1.133-0.703,1.133-1.388
			c0-0.782-0.635-1.417-1.417-1.417c-0.369,0-0.702,0.145-0.954,0.376c-0.025-0.024-0.038-0.058-0.072-0.071l-1.048-0.432
			c-0.144-0.059-0.311,0.009-0.37,0.154c-0.059,0.145,0.009,0.311,0.154,0.37l1.012,0.417c-0.086,0.183-0.138,0.386-0.138,0.603
			c0,0.22,0.054,0.425,0.144,0.611c-0.006,0.003-0.012,0-0.017,0.004l-1.7,1.133c-0.13,0.087-0.165,0.263-0.078,0.393
			C13.654,8.729,13.83,8.764,13.961,8.678z M16.637,5.608c0.469,0,0.85,0.381,0.85,0.85s-0.381,0.85-0.85,0.85
			c-0.469,0-0.85-0.381-0.85-0.85S16.169,5.608,16.637,5.608z"/>
		<path d="M5.147,13.022l-1.7,1.133c-0.015,0.009-0.015,0.028-0.027,0.041c-0.185-0.168-0.412-0.291-0.666-0.343v-1.445
			c0-0.157-0.127-0.283-0.283-0.283s-0.283,0.127-0.283,0.283v1.445c-0.647,0.131-1.133,0.703-1.133,1.388
			c0,0.782,0.635,1.417,1.417,1.417c0.453,0,0.852-0.216,1.111-0.548l0.927,0.436c0.142,0.067,0.311,0.006,0.377-0.136
			c0.066-0.142,0.006-0.311-0.136-0.377l-0.915-0.431c0.031-0.116,0.053-0.236,0.053-0.362c0-0.22-0.054-0.425-0.144-0.611
			c0.006-0.003,0.012,0,0.017-0.004l1.7-1.133c0.13-0.087,0.165-0.263,0.078-0.393C5.454,12.971,5.277,12.935,5.147,13.022z
			 M2.471,16.092c-0.469,0-0.85-0.381-0.85-0.85s0.381-0.85,0.85-0.85s0.85,0.381,0.85,0.85S2.941,16.092,2.471,16.092z"/>
	</g>
</g>
<g id="Layer_1_2_" class="st0">
</g>
<g id="bill-of-materials">
	<g>
		<path class="st1" d="M2.917,10.567c0.157,0,0.283-0.127,0.283-0.283v-0.85c0-0.157-0.127-0.283-0.283-0.283
			S2.634,9.277,2.634,9.433v0.85C2.634,10.44,2.76,10.567,2.917,10.567z"/>
		<path class="st1" d="M6.479,15.646c-0.142-0.067-0.311-0.006-0.377,0.136c-0.066,0.142-0.007,0.311,0.135,0.377l0.769,0.362
			c0.142,0.067,0.311,0.006,0.377-0.136c0.066-0.142,0.006-0.311-0.136-0.377L6.479,15.646z"/>
		<path class="st1" d="M17.083,10.283c-0.157,0-0.283,0.127-0.283,0.283v0.85c0,0.157,0.127,0.283,0.283,0.283
			s0.283-0.127,0.283-0.283v-0.85C17.367,10.41,17.241,10.283,17.083,10.283z"/>
		<path class="st1" d="M17.367,8.583c0-0.157-0.127-0.283-0.283-0.283S16.8,8.427,16.8,8.583v0.85c0,0.157,0.127,0.283,0.283,0.283
			s0.283-0.127,0.283-0.283V8.583z"/>
		<path class="st1" d="M17.367,12.862v-0.595c0-0.157-0.127-0.283-0.283-0.283S16.8,12.11,16.8,12.267v0.595
			c-0.254,0.052-0.481,0.175-0.666,0.343c-0.012-0.012-0.012-0.031-0.027-0.041l-1.7-1.133c-0.13-0.087-0.306-0.052-0.393,0.078
			c-0.087,0.13-0.052,0.306,0.078,0.393l1.7,1.133c0.006,0.004,0.012,0,0.017,0.004c-0.09,0.186-0.144,0.391-0.144,0.611
			c0,0.126,0.022,0.246,0.053,0.362l-0.915,0.431c-0.142,0.067-0.202,0.235-0.136,0.377c0.067,0.142,0.235,0.202,0.377,0.136
			l0.927-0.436c0.26,0.331,0.658,0.548,1.111,0.548c0.782,0,1.417-0.635,1.417-1.417C18.5,13.564,18.014,12.993,17.367,12.862z
			 M17.083,15.1c-0.469,0-0.85-0.381-0.85-0.85c0-0.469,0.381-0.85,0.85-0.85s0.85,0.381,0.85,0.85
			C17.933,14.719,17.552,15.1,17.083,15.1z"/>
		<path class="st1" d="M13.521,15.646l-0.769,0.362c-0.142,0.067-0.202,0.235-0.136,0.377c0.067,0.142,0.235,0.202,0.377,0.136
			l0.769-0.362c0.142-0.066,0.202-0.235,0.136-0.377S13.664,15.58,13.521,15.646z"/>
		<path class="st1" d="M11.728,16.49l-0.38,0.178c-0.178-0.579-0.71-1.002-1.348-1.002c-0.638,0-1.17,0.423-1.348,1.002l-0.38-0.178
			c-0.142-0.067-0.311-0.006-0.377,0.136c-0.067,0.142-0.006,0.311,0.136,0.377l0.57,0.269C8.696,17.965,9.283,18.5,10,18.5
			s1.304-0.535,1.398-1.228l0.571-0.269c0.142-0.067,0.202-0.235,0.136-0.377C12.038,16.485,11.869,16.424,11.728,16.49z M10,17.933
			c-0.469,0-0.85-0.381-0.85-0.85c0-0.469,0.381-0.85,0.85-0.85s0.85,0.381,0.85,0.85C10.85,17.553,10.47,17.933,10,17.933z"/>
		<path class="st1" d="M12.699,3.584l0.786,0.324c0.144,0.059,0.311-0.009,0.37-0.154c0.059-0.145-0.009-0.311-0.154-0.37
			L12.914,3.06c-0.144-0.059-0.311,0.009-0.37,0.154C12.485,3.359,12.554,3.525,12.699,3.584z"/>
		<path class="st1" d="M6.516,3.907l0.786-0.324c0.144-0.059,0.213-0.225,0.154-0.37C7.397,3.07,7.231,3.001,7.086,3.06L6.3,3.384
			c-0.144,0.06-0.213,0.225-0.155,0.369C6.206,3.898,6.372,3.967,6.516,3.907z"/>
		<path class="st1" d="M8.351,3.153l0.247-0.102C8.665,3.77,9.264,4.333,10,4.333s1.335-0.564,1.403-1.283l0.247,0.102
			c0.144,0.059,0.311-0.009,0.37-0.154c0.059-0.145-0.009-0.311-0.154-0.37l-0.549-0.226C11.11,1.875,10.6,1.5,10,1.5
			S8.89,1.875,8.683,2.403L8.134,2.629c-0.144,0.06-0.213,0.225-0.155,0.37C8.039,3.143,8.205,3.212,8.351,3.153z M10,2.067
			c0.469,0,0.85,0.381,0.85,0.85s-0.381,0.85-0.85,0.85s-0.85-0.381-0.85-0.85S9.531,2.067,10,2.067z"/>
		<path class="st1" d="M13.04,7.974l-2.865-1.439c-0.109-0.055-0.239-0.055-0.348,0L6.99,7.953l-0.03,0.022
			c-0.047,0.029-0.085,0.067-0.104,0.1l-0.03,0.037C6.794,8.17,6.778,8.234,6.778,8.3v3.117c0,0.147,0.082,0.281,0.215,0.348
			l2.834,1.418c0.026,0.013,0.051,0.015,0.065,0.016c0.029,0.009,0.065,0.021,0.109,0.021c0.043,0,0.079-0.011,0.109-0.02
			c0.014-0.002,0.038-0.003,0.065-0.017l2.833-1.417c0.133-0.066,0.216-0.199,0.216-0.348V8.3c0-0.064-0.016-0.126-0.045-0.182
			l-0.02-0.026C13.127,8.043,13.087,8.004,13.04,7.974z M9.609,12.203l-2.054-1.027V8.875l2.054,0.822V12.203z M10,9.013L8.117,8.26
			L10,7.319l1.883,0.942L10,9.013z M12.443,11.176l-2.054,1.027V9.697l2.054-0.822V11.176z"/>
		<path class="st1" d="M4.207,6.081c-0.006-0.004-0.012,0-0.017-0.004c0.089-0.185,0.143-0.39,0.143-0.61
			c0-0.216-0.052-0.419-0.139-0.603l1.012-0.417c0.144-0.059,0.213-0.225,0.154-0.37C5.301,3.933,5.135,3.864,4.99,3.923
			L3.941,4.355C3.907,4.369,3.895,4.402,3.869,4.426C3.619,4.194,3.286,4.05,2.917,4.05C2.135,4.05,1.5,4.685,1.5,5.467
			c0,0.686,0.486,1.257,1.133,1.388v0.878c0,0.157,0.127,0.283,0.283,0.283S3.2,7.89,3.2,7.733V6.855
			C3.455,6.803,3.681,6.68,3.866,6.512c0.012,0.011,0.012,0.03,0.026,0.041l1.7,1.133c0.13,0.087,0.306,0.052,0.393-0.078
			s0.052-0.307-0.078-0.394L4.207,6.081z M2.917,6.317c-0.469,0-0.85-0.381-0.85-0.85c0-0.469,0.381-0.85,0.85-0.85
			s0.85,0.381,0.85,0.85C3.767,5.936,3.387,6.317,2.917,6.317z"/>
		<path class="st1" d="M14.407,7.686l1.7-1.133c0.015-0.009,0.015-0.028,0.027-0.041C16.32,6.68,16.545,6.804,16.8,6.855v0.878
			c0,0.157,0.127,0.283,0.283,0.283s0.283-0.127,0.283-0.283V6.855C18.014,6.724,18.5,6.152,18.5,5.467
			c0-0.782-0.635-1.417-1.417-1.417c-0.369,0-0.702,0.144-0.954,0.376c-0.025-0.024-0.038-0.058-0.072-0.071L15.01,3.923
			c-0.144-0.059-0.311,0.009-0.37,0.154c-0.059,0.145,0.009,0.311,0.154,0.37l1.012,0.417c-0.086,0.183-0.138,0.386-0.138,0.603
			c0,0.22,0.054,0.425,0.144,0.611c-0.006,0.003-0.012,0-0.017,0.004l-1.7,1.133c-0.13,0.087-0.165,0.263-0.078,0.393
			C14.1,7.737,14.276,7.772,14.407,7.686z M17.083,4.617c0.469,0,0.85,0.381,0.85,0.85c0,0.469-0.381,0.85-0.85,0.85
			s-0.85-0.381-0.85-0.85C16.233,4.997,16.614,4.617,17.083,4.617z"/>
		<path class="st1" d="M5.593,12.031l-1.7,1.133c-0.015,0.009-0.015,0.028-0.027,0.041C3.68,13.036,3.454,12.914,3.2,12.862v-1.445
			c0-0.157-0.127-0.283-0.283-0.283s-0.283,0.127-0.283,0.283v1.445C1.986,12.993,1.5,13.564,1.5,14.25
			c0,0.782,0.635,1.417,1.417,1.417c0.453,0,0.852-0.216,1.111-0.548l0.927,0.436c0.142,0.067,0.311,0.006,0.377-0.136
			c0.066-0.142,0.006-0.311-0.136-0.377L4.28,14.612c0.031-0.116,0.053-0.236,0.053-0.362c0-0.22-0.054-0.425-0.144-0.611
			c0.006-0.003,0.012,0,0.017-0.004l1.7-1.133c0.13-0.087,0.165-0.263,0.078-0.393C5.9,11.98,5.723,11.944,5.593,12.031z
			 M2.917,15.1c-0.469,0-0.85-0.381-0.85-0.85c0-0.469,0.381-0.85,0.85-0.85s0.85,0.381,0.85,0.85
			C3.767,14.719,3.387,15.1,2.917,15.1z"/>
	</g>
</g>
<g id="Layer_1_1_">
</g>
</svg>
