<?xml version="1.0" encoding="utf-8"?>
<!-- Generator: Adobe Illustrator 21.1.0, SVG Export Plug-In . SVG Version: 6.00 Build 0)  -->
<svg version="1.1" xmlns="http://www.w3.org/2000/svg" xmlns:xlink="http://www.w3.org/1999/xlink" x="0px" y="0px"
	 viewBox="0 0 20 20" style="enable-background:new 0 0 20 20;" xml:space="preserve">
<style type="text/css">
	.st0{opacity:0.33;}
	.st1{fill:#EDEDED;}
</style>
<g id="Layer_1">
</g>
<g id="Layer_2">
	<g class="st0">
		<path d="M17.015,3.795h-1.7c-0.235,0-0.425,0.19-0.425,0.425v0.291H3.193V4.22c0-0.235-0.19-0.425-0.425-0.425h-1.7
			c-0.235,0-0.425,0.19-0.425,0.425v13.394c0,0.235,0.19,0.425,0.425,0.425h1.7c0.235,0,0.425-0.19,0.425-0.425v-0.291H14.89v0.291
			c0,0.235,0.19,0.425,0.425,0.425h1.7c0.235,0,0.425-0.19,0.425-0.425V4.22C17.44,3.985,17.25,3.795,17.015,3.795z M2.343,17.189
			h-0.85V4.645h0.85v0.291v11.963V17.189z M3.193,16.473V5.361H14.89v11.113H3.193z M16.59,17.189h-0.85v-0.291V4.936V4.645h0.85
			V17.189z"/>
		<path d="M8.092,13.043H6.817V6.665c0-0.235-0.19-0.425-0.425-0.425c-0.235,0-0.425,0.19-0.425,0.425v6.378H4.692
			c-0.235,0-0.425,0.19-0.425,0.425v1.7c0,0.235,0.19,0.425,0.425,0.425h3.4c0.235,0,0.425-0.19,0.425-0.425v-1.7
			C8.517,13.233,8.327,13.043,8.092,13.043z M7.667,14.743h-2.55v-0.85h2.55V14.743z"/>
		<path d="M13.457,8.368h-1.275V6.665c0-0.235-0.19-0.425-0.425-0.425s-0.425,0.19-0.425,0.425v1.703h-1.275
			c-0.235,0-0.425,0.19-0.425,0.425v1.7c0,0.235,0.19,0.425,0.425,0.425h1.275v4.25c0,0.235,0.19,0.425,0.425,0.425
			s0.425-0.19,0.425-0.425v-4.25h1.275c0.235,0,0.425-0.19,0.425-0.425v-1.7C13.882,8.558,13.692,8.368,13.457,8.368z
			 M13.032,10.068h-2.55v-0.85h2.55V10.068z"/>
	</g>
	<g>
		<path class="st1" d="M17.974,2.878h-1.7c-0.235,0-0.425,0.19-0.425,0.425v0.291H4.151V3.303c0-0.235-0.19-0.425-0.425-0.425h-1.7
			c-0.235,0-0.425,0.19-0.425,0.425v13.394c0,0.235,0.19,0.425,0.425,0.425h1.7c0.235,0,0.425-0.19,0.425-0.425v-0.291h11.697v0.291
			c0,0.235,0.19,0.425,0.425,0.425h1.7c0.235,0,0.425-0.19,0.425-0.425V3.303C18.399,3.068,18.208,2.878,17.974,2.878z
			 M3.301,16.272h-0.85V3.728h0.85v0.291v11.963V16.272z M4.151,15.557V4.444h11.697v11.113H4.151z M17.549,16.272h-0.85v-0.291
			V4.019V3.728h0.85V16.272z"/>
		<path class="st1" d="M9.05,12.127H7.775V5.748c0-0.235-0.19-0.425-0.425-0.425c-0.235,0-0.425,0.19-0.425,0.425v6.378H5.65
			c-0.235,0-0.425,0.19-0.425,0.425v1.7c0,0.235,0.19,0.425,0.425,0.425h3.4c0.235,0,0.425-0.19,0.425-0.425v-1.7
			C9.475,12.317,9.285,12.127,9.05,12.127z M8.625,13.827h-2.55v-0.85h2.55V13.827z"/>
		<path class="st1" d="M14.416,7.452h-1.275V5.748c0-0.235-0.19-0.425-0.425-0.425s-0.425,0.19-0.425,0.425v1.703h-1.275
			c-0.235,0-0.425,0.19-0.425,0.425v1.7c0,0.235,0.19,0.425,0.425,0.425h1.275v4.25c0,0.235,0.19,0.425,0.425,0.425
			s0.425-0.19,0.425-0.425v-4.25h1.275c0.235,0,0.425-0.19,0.425-0.425v-1.7C14.841,7.642,14.651,7.452,14.416,7.452z M13.991,9.152
			h-2.55v-0.85h2.55V9.152z"/>
	</g>
</g>
</svg>
