<?xml version="1.0" encoding="utf-8"?>
<!-- Generator: Adobe Illustrator 21.1.0, SVG Export Plug-In . SVG Version: 6.00 Build 0)  -->
<svg version="1.1" id="Layer_1" xmlns="http://www.w3.org/2000/svg" xmlns:xlink="http://www.w3.org/1999/xlink" x="0px" y="0px"
	 viewBox="0 0 20 20" style="enable-background:new 0 0 20 20;" xml:space="preserve">
<style type="text/css">
	.st0{opacity:0.33;}
	.st1{fill:#EDEDED;}
</style>
<g id="Dashboard_1_" class="st0">
	<g>
		<path d="M11.683,9.64l-1.232,0.743c-0.37,0.22-0.792,0.438-1.307,0.681c-0.133,0.053-0.292,0.133-0.455,0.214
			c-0.624,0.327-0.945,1.003-0.795,1.684c0.12,0.54,0.561,0.982,1.099,1.102c0.125,0.031,0.247,0.031,0.354,0.031
			c0.552,0,1.063-0.316,1.342-0.843c0.048-0.124,0.123-0.273,0.196-0.418c0.086-0.164,0.171-0.333,0.254-0.502
			c0.137-0.275,0.278-0.56,0.433-0.827l0.753-1.248c0.057-0.116,0.093-0.298-0.071-0.517C12.126,9.574,11.901,9.529,11.683,9.64z"/>
		<path d="M17.421,9.245c-0.005-0.025-0.014-0.051-0.023-0.076c-0.011-0.026-0.023-0.052-0.026-0.052c0,0,0,0.001,0,0.002
			c-0.423-1.011-1.029-1.923-1.782-2.68c-0.017-0.025-0.037-0.05-0.062-0.075c-0.02-0.02-0.041-0.038-0.044-0.038
			c0,0,0,0,0.001,0.002c-1.606-1.584-3.723-2.456-5.961-2.456c-1.085,0-2.143,0.203-3.104,0.596C6.384,4.475,6.35,4.485,6.324,4.495
			c-0.033,0.013-0.063,0.03-0.055,0.03l0,0c-1.01,0.422-1.921,1.028-2.675,1.777c-0.028,0.02-0.055,0.041-0.08,0.065
			C3.489,6.391,3.477,6.411,3.476,6.412C1.892,8.019,1.02,10.135,1.02,12.374c0,1.963,0.638,3.786,1.831,5.255
			c0.089,0.134,0.23,0.207,0.4,0.207h12.54c0.169,0,0.309-0.073,0.387-0.19c1.206-1.486,1.843-3.309,1.843-5.272
			C18.021,11.294,17.819,10.242,17.421,9.245z M15.558,12.944h1.773c-0.045,0.708-0.183,1.402-0.413,2.068l-0.586-0.255
			c-0.263-0.103-0.562,0.015-0.662,0.269c-0.052,0.13-0.051,0.275,0.004,0.403c0.053,0.12,0.147,0.212,0.257,0.257l0.596,0.257
			c-0.201,0.405-0.439,0.792-0.705,1.157H3.248c-0.299-0.396-0.559-0.82-0.776-1.264l0.576-0.233
			c0.129-0.052,0.226-0.152,0.273-0.285c0.045-0.121,0.043-0.256-0.006-0.38c-0.052-0.127-0.152-0.225-0.284-0.272
			c-0.121-0.045-0.257-0.042-0.381,0.007L2.088,14.9c-0.21-0.63-0.337-1.286-0.381-1.956h1.773c0.295,0,0.509-0.214,0.509-0.509
			c0-0.295-0.212-0.508-0.508-0.508H1.711c0.046-0.706,0.187-1.398,0.421-2.064L2.681,10.1c0.086,0.058,0.187,0.058,0.228,0.058
			c0.2,0,0.363-0.104,0.465-0.312C3.479,9.581,3.36,9.284,3.112,9.185L2.528,8.932c0.3-0.596,0.676-1.15,1.118-1.654l0.428,0.428
			c0.207,0.207,0.509,0.207,0.717,0c0.2-0.2,0.2-0.517,0-0.717L4.363,6.56c0.535-0.47,1.124-0.863,1.759-1.171l0.222,0.545
			c0.051,0.205,0.241,0.341,0.474,0.341c0.054,0,0.118-0.004,0.197-0.044c0.253-0.101,0.372-0.399,0.267-0.663L7.054,5.009
			c0.632-0.211,1.287-0.339,1.955-0.383v1.773c0,0.295,0.214,0.509,0.509,0.509s0.509-0.214,0.509-0.509V4.624
			c0.706,0.046,1.399,0.188,2.064,0.422l-0.251,0.58c-0.052,0.13-0.05,0.276,0.004,0.404c0.046,0.109,0.129,0.195,0.232,0.245
			c0.086,0.058,0.188,0.058,0.229,0.058c0.203,0,0.409-0.142,0.462-0.306l0.254-0.584c0.596,0.302,1.15,0.677,1.653,1.119
			l-0.426,0.428c-0.2,0.2-0.2,0.516,0.001,0.717c0.195,0.196,0.523,0.193,0.716,0l0.428-0.428c0.469,0.535,0.863,1.124,1.171,1.759
			l-0.572,0.233c-0.254,0.101-0.373,0.397-0.276,0.634c0.051,0.205,0.241,0.341,0.474,0.341c0.055,0,0.099-0.018,0.116-0.028
			l0.642-0.244c0.211,0.63,0.339,1.286,0.383,1.955h-1.773c-0.295,0-0.509,0.214-0.509,0.509
			C15.049,12.73,15.262,12.944,15.558,12.944z"/>
	</g>
</g>
<g id="Layer_1_1_">
</g>
<g id="Layer_1_2_">
</g>
<g id="Dashboard">
	<g>
		<path class="st1" d="M12.162,8.786l-1.232,0.743c-0.37,0.22-0.792,0.438-1.307,0.681c-0.133,0.053-0.292,0.133-0.455,0.214
			c-0.624,0.327-0.945,1.003-0.795,1.684c0.12,0.54,0.561,0.982,1.099,1.102c0.125,0.031,0.247,0.031,0.354,0.031
			c0.552,0,1.063-0.316,1.342-0.843c0.048-0.124,0.123-0.273,0.196-0.418c0.086-0.164,0.171-0.333,0.254-0.502
			c0.137-0.275,0.278-0.56,0.433-0.827l0.753-1.248c0.057-0.116,0.093-0.298-0.071-0.517C12.605,8.72,12.38,8.675,12.162,8.786z"/>
		<path class="st1" d="M17.901,8.391c-0.005-0.025-0.014-0.051-0.023-0.076c-0.011-0.026-0.023-0.052-0.026-0.052
			c0,0,0,0.001,0,0.002c-0.423-1.011-1.029-1.923-1.782-2.68c-0.017-0.025-0.037-0.05-0.062-0.075
			c-0.02-0.02-0.041-0.038-0.044-0.038c0,0,0,0,0.001,0.002c-1.606-1.584-3.723-2.456-5.961-2.456c-1.085,0-2.143,0.203-3.104,0.596
			C6.863,3.621,6.829,3.63,6.803,3.641C6.77,3.654,6.74,3.67,6.748,3.67l0,0c-1.01,0.422-1.921,1.028-2.675,1.777
			c-0.028,0.02-0.055,0.041-0.08,0.065C3.968,5.537,3.956,5.557,3.955,5.558C2.371,7.164,1.5,9.28,1.5,11.52
			c0,1.963,0.638,3.786,1.831,5.255c0.089,0.134,0.23,0.207,0.4,0.207h12.54c0.169,0,0.309-0.073,0.387-0.19
			c1.206-1.486,1.843-3.309,1.843-5.272C18.5,10.44,18.298,9.388,17.901,8.391z M16.038,12.09h1.773
			c-0.045,0.709-0.183,1.402-0.413,2.068l-0.586-0.255c-0.263-0.103-0.562,0.015-0.662,0.269c-0.052,0.13-0.051,0.275,0.004,0.403
			c0.053,0.12,0.147,0.212,0.257,0.257l0.596,0.257c-0.201,0.405-0.439,0.792-0.705,1.157H3.727
			c-0.299-0.396-0.559-0.82-0.776-1.264l0.576-0.233c0.129-0.052,0.226-0.152,0.273-0.285c0.045-0.121,0.043-0.256-0.006-0.38
			c-0.052-0.127-0.152-0.225-0.284-0.272c-0.121-0.045-0.257-0.042-0.381,0.007l-0.562,0.227c-0.21-0.63-0.337-1.286-0.381-1.956
			H3.96c0.295,0,0.509-0.214,0.509-0.509s-0.212-0.508-0.508-0.508H2.19c0.046-0.706,0.187-1.398,0.421-2.064L3.16,9.246
			c0.086,0.058,0.187,0.058,0.228,0.058c0.2,0,0.363-0.104,0.465-0.312C3.958,8.727,3.839,8.43,3.591,8.33L3.007,8.077
			c0.3-0.596,0.676-1.15,1.118-1.654l0.428,0.428c0.207,0.207,0.509,0.207,0.717,0c0.2-0.2,0.2-0.517,0-0.717L4.842,5.706
			C5.376,5.236,5.966,4.843,6.6,4.535L6.823,5.08c0.051,0.205,0.241,0.341,0.474,0.341c0.054,0,0.118-0.004,0.197-0.044
			c0.253-0.101,0.372-0.399,0.267-0.663L7.533,4.154c0.632-0.211,1.287-0.339,1.955-0.383v1.773c0,0.295,0.214,0.509,0.509,0.509
			s0.509-0.214,0.509-0.509V3.77c0.706,0.046,1.399,0.188,2.064,0.422l-0.251,0.58c-0.052,0.13-0.05,0.276,0.004,0.404
			c0.046,0.109,0.129,0.195,0.232,0.245c0.086,0.058,0.188,0.058,0.229,0.058c0.203,0,0.409-0.142,0.462-0.306l0.254-0.584
			c0.596,0.302,1.15,0.677,1.653,1.119l-0.426,0.428c-0.2,0.2-0.2,0.516,0.001,0.717c0.195,0.196,0.523,0.193,0.716,0l0.428-0.428
			c0.469,0.535,0.863,1.124,1.171,1.759l-0.572,0.233c-0.254,0.101-0.373,0.397-0.276,0.634c0.051,0.205,0.241,0.341,0.474,0.341
			c0.055,0,0.099-0.018,0.116-0.028l0.642-0.244c0.211,0.63,0.339,1.286,0.383,1.955h-1.773c-0.295,0-0.509,0.214-0.509,0.509
			S15.741,12.09,16.038,12.09z"/>
	</g>
</g>
</svg>
