<?xml version="1.0" encoding="utf-8"?>
<!-- Generator: Adobe Illustrator 21.1.0, SVG Export Plug-In . SVG Version: 6.00 Build 0)  -->
<svg version="1.1" id="Layer_3" xmlns="http://www.w3.org/2000/svg" xmlns:xlink="http://www.w3.org/1999/xlink" x="0px" y="0px"
	 viewBox="0 0 22 22" style="enable-background:new 0 0 22 22;" xml:space="preserve">
<g>
	<g>
		<defs>
			<path id="SVGID_1_" d="M13.75,17.6h1.1c0.161,0,0.292-0.041,0.395-0.124c0.103-0.083,0.154-0.188,0.154-0.316V9.24
				c0-0.128-0.051-0.234-0.154-0.316C15.143,8.841,15.011,8.8,14.85,8.8h-1.1c-0.161,0-0.292,0.041-0.395,0.124
				C13.251,9.006,13.2,9.112,13.2,9.24v7.92c0,0.129,0.051,0.234,0.155,0.316C13.458,17.559,13.589,17.6,13.75,17.6z M10.45,17.6
				h1.1c0.161,0,0.292-0.041,0.395-0.124c0.103-0.083,0.155-0.188,0.155-0.316V9.24c0-0.128-0.051-0.234-0.155-0.316
				C11.843,8.841,11.711,8.8,11.55,8.8h-1.1c-0.16,0-0.292,0.041-0.395,0.124C9.951,9.006,9.9,9.112,9.9,9.24v7.92
				c0,0.129,0.051,0.234,0.155,0.316C10.158,17.559,10.29,17.6,10.45,17.6z M7.15,17.6h1.1c0.161,0,0.292-0.041,0.395-0.124
				C8.748,17.394,8.8,17.289,8.8,17.16V9.24c0-0.128-0.052-0.234-0.155-0.316C8.542,8.841,8.411,8.8,8.25,8.8h-1.1
				c-0.161,0-0.292,0.041-0.395,0.124C6.652,9.006,6.6,9.112,6.6,9.24v7.92c0,0.129,0.051,0.234,0.155,0.316
				C6.858,17.559,6.989,17.6,7.15,17.6z M17.3,19.078c0,0.21-0.033,0.403-0.098,0.58c-0.066,0.177-0.134,0.306-0.204,0.387
				s-0.119,0.122-0.148,0.122H5.15c-0.028,0-0.077-0.04-0.148-0.122c-0.07-0.081-0.138-0.21-0.204-0.387S4.7,19.288,4.7,19.078V5.5
				h12.6V19.078z M8.539,1.991c0.066-0.086,0.145-0.139,0.239-0.158h4.458c0.094,0.019,0.173,0.072,0.239,0.158l0.675,1.676h-6.3
				L8.539,1.991z M20.773,3.795c-0.084-0.086-0.192-0.129-0.323-0.129h-4.345L15.12,1.275c-0.141-0.353-0.394-0.654-0.759-0.902
				C13.995,0.124,13.625,0,13.25,0h-4.5C8.375,0,8.005,0.124,7.639,0.372C7.273,0.621,7.02,0.921,6.88,1.275L5.895,3.667H1.55
				c-0.131,0-0.239,0.043-0.323,0.129C1.142,3.881,1.1,3.991,1.1,4.125v0.917c0,0.134,0.042,0.243,0.127,0.329
				C1.311,5.457,1.419,5.5,1.55,5.5H2.9v13.636c0,0.793,0.22,1.468,0.661,2.027C4.001,21.721,4.531,22,5.15,22h11.7
				c0.619,0,1.148-0.289,1.589-0.866c0.441-0.578,0.661-1.263,0.661-2.055V5.5h1.35c0.131,0,0.239-0.043,0.323-0.129
				C20.858,5.285,20.9,5.175,20.9,5.042V4.125C20.9,3.991,20.858,3.881,20.773,3.795z"/>
		</defs>
		<use xlink:href="#SVGID_1_"  style="overflow:visible;fill:#888B90;"/>
		<clipPath id="SVGID_2_">
			<use xlink:href="#SVGID_1_"  style="overflow:visible;"/>
		</clipPath>
	</g>
</g>
</svg>
