<?xml version="1.0" encoding="utf-8"?>
<!-- Generator: Adobe Illustrator 21.1.0, SVG Export Plug-In . SVG Version: 6.00 Build 0)  -->
<svg version="1.1" id="Layer_1" xmlns="http://www.w3.org/2000/svg" xmlns:xlink="http://www.w3.org/1999/xlink" x="0px" y="0px"
	 viewBox="0 0 20 20" style="enable-background:new 0 0 20 20;" xml:space="preserve">
<style type="text/css">
	.st0{opacity:0.33;}
	.st1{fill:#EDEDED;}
</style>
<g id="diagnostic_1_" class="st0">
	<g>
		<path d="M10.731,10.019c-0.147-0.149-0.401-0.149-0.55,0l-1.307,1.31l-0.359-0.361c-0.149-0.149-0.401-0.149-0.55,0l-0.238,0.238
			c-0.074,0.074-0.114,0.169-0.114,0.275s0.039,0.2,0.114,0.275l0.872,0.872c0.074,0.074,0.169,0.114,0.275,0.114
			s0.2-0.039,0.275-0.114l1.82-1.821c0.074-0.074,0.114-0.169,0.114-0.275c0-0.105-0.039-0.2-0.114-0.274L10.731,10.019z"/>
		<path d="M17.679,8.577c-0.241-0.739-0.926-1.21-1.664-1.209c-0.18,0-0.361,0.028-0.542,0.086c-0.811,0.263-1.297,1.064-1.194,1.88
			l-1.815,0.59c-0.5-1.119-1.579-1.911-2.853-2.023V5.987c0.809-0.155,1.42-0.863,1.42-1.717c0.001-0.967-0.783-1.75-1.75-1.75
			s-1.75,0.783-1.75,1.75c0,0.854,0.611,1.562,1.42,1.717v1.92c-1.269,0.134-2.34,0.94-2.822,2.071L4.326,9.391
			c0.102-0.816-0.382-1.617-1.194-1.88C2.953,7.453,2.77,7.424,2.592,7.424c-0.737,0-1.423,0.47-1.664,1.209
			c-0.298,0.92,0.205,1.907,1.124,2.206c0.18,0.058,0.362,0.086,0.542,0.086c0.628,0,1.201-0.354,1.511-0.912l1.83,0.594
			c-0.049,0.232-0.078,0.472-0.078,0.719c0,1.04,0.471,1.962,1.2,2.597L5.93,15.471c-0.745-0.35-1.656-0.135-2.157,0.555
			c-0.568,0.782-0.395,1.876,0.387,2.445c0.782,0.568,1.876,0.395,2.445-0.387c0.502-0.69,0.423-1.623-0.139-2.224l1.127-1.551
			c0.509,0.295,1.092,0.477,1.721,0.477c0.651,0,1.253-0.192,1.773-0.505l1.123,1.546c-0.562,0.6-0.64,1.533-0.139,2.223
			c0.568,0.782,1.662,0.955,2.445,0.387c0.782-0.568,0.955-1.662,0.387-2.445c-0.501-0.69-1.412-0.904-2.157-0.555l-1.126-1.55
			c0.702-0.633,1.153-1.54,1.153-2.558c0-0.268-0.038-0.527-0.096-0.777l1.83-0.594c0.31,0.558,0.883,0.912,1.511,0.912
			c0.18,0,0.361-0.027,0.542-0.086C17.475,10.483,17.978,9.496,17.679,8.577z M3.628,9.512c-0.147,0.45-0.562,0.753-1.035,0.753
			c-0.114,0-0.228-0.018-0.337-0.054C1.98,10.121,1.754,9.929,1.622,9.67S1.467,9.115,1.557,8.838
			c0.147-0.45,0.562-0.753,1.036-0.753c0.114,0,0.227,0.018,0.337,0.054c0.276,0.09,0.502,0.282,0.634,0.542
			C3.695,8.94,3.718,9.235,3.628,9.512z M9.312,13.903c-1.423,0-2.576-1.154-2.576-2.576S7.889,8.752,9.31,8.751h0.005
			c1.422,0.001,2.574,1.154,2.574,2.576S10.736,13.903,9.312,13.903z M16.985,9.612c-0.133,0.259-0.357,0.451-0.634,0.542
			c-0.11,0.036-0.223,0.054-0.337,0.054c-0.473,0-0.889-0.303-1.036-0.753c-0.09-0.276-0.067-0.572,0.066-0.831
			c0.133-0.259,0.357-0.451,0.634-0.542c0.11-0.036,0.223-0.054,0.338-0.054c0.473,0,0.889,0.303,1.035,0.753
			C17.141,9.057,17.118,9.353,16.985,9.612z"/>
	</g>
</g>
<g id="diagnostic">
	<g>
		<path class="st1" d="M11.427,9.357c-0.147-0.149-0.401-0.149-0.55,0l-1.307,1.31l-0.359-0.361c-0.149-0.149-0.401-0.149-0.55,0
			l-0.238,0.238c-0.074,0.074-0.114,0.169-0.114,0.275c0,0.105,0.039,0.2,0.114,0.275l0.872,0.872
			c0.074,0.074,0.169,0.114,0.275,0.114c0.105,0,0.2-0.039,0.275-0.114l1.82-1.821c0.074-0.074,0.114-0.169,0.114-0.275
			c0-0.105-0.039-0.2-0.114-0.274L11.427,9.357z"/>
		<path class="st1" d="M18.375,7.915c-0.241-0.739-0.926-1.21-1.664-1.209c-0.18,0-0.361,0.028-0.542,0.086
			c-0.811,0.263-1.297,1.064-1.194,1.88l-1.815,0.59c-0.5-1.119-1.579-1.911-2.853-2.023V5.325c0.809-0.155,1.42-0.863,1.42-1.717
			c0.001-0.967-0.783-1.75-1.75-1.75s-1.75,0.783-1.75,1.75c0,0.854,0.611,1.562,1.42,1.717v1.92
			c-1.269,0.134-2.34,0.94-2.822,2.071L5.023,8.729c0.102-0.816-0.382-1.617-1.194-1.88C3.649,6.79,3.467,6.762,3.288,6.762
			c-0.737,0-1.423,0.47-1.664,1.209c-0.298,0.92,0.205,1.907,1.124,2.206c0.18,0.058,0.362,0.086,0.542,0.086
			c0.628,0,1.201-0.354,1.511-0.912l1.83,0.594c-0.049,0.232-0.078,0.472-0.078,0.719c0,1.04,0.471,1.962,1.2,2.597l-1.124,1.547
			c-0.745-0.35-1.656-0.135-2.157,0.555c-0.568,0.782-0.395,1.876,0.387,2.445c0.782,0.568,1.876,0.395,2.445-0.387
			c0.502-0.69,0.423-1.623-0.139-2.224l1.127-1.551c0.509,0.295,1.092,0.477,1.721,0.477c0.651,0,1.253-0.192,1.773-0.505
			l1.123,1.546c-0.562,0.6-0.64,1.533-0.139,2.223c0.568,0.782,1.662,0.955,2.444,0.387c0.782-0.568,0.955-1.662,0.387-2.444
			c-0.501-0.69-1.412-0.904-2.157-0.555l-1.126-1.55c0.702-0.633,1.153-1.54,1.153-2.558c0-0.268-0.038-0.527-0.096-0.777
			l1.83-0.594c0.31,0.558,0.883,0.912,1.511,0.912c0.18,0,0.361-0.027,0.542-0.086C18.171,9.821,18.674,8.833,18.375,7.915z
			 M4.324,8.849C4.178,9.3,3.762,9.603,3.289,9.603c-0.114,0-0.228-0.018-0.337-0.054C2.676,9.459,2.45,9.267,2.319,9.007
			C2.187,8.748,2.164,8.453,2.253,8.176C2.4,7.726,2.815,7.423,3.289,7.423c0.114,0,0.227,0.018,0.337,0.054
			c0.276,0.09,0.502,0.282,0.634,0.542C4.391,8.278,4.415,8.573,4.324,8.849z M10.009,13.241c-1.423,0-2.576-1.154-2.576-2.576
			s1.153-2.575,2.574-2.576h0.005c1.422,0.001,2.574,1.154,2.574,2.576S11.432,13.241,10.009,13.241z M17.682,8.95
			c-0.133,0.259-0.357,0.451-0.634,0.542c-0.11,0.036-0.223,0.054-0.337,0.054c-0.473,0-0.889-0.303-1.036-0.753
			c-0.09-0.276-0.067-0.572,0.066-0.831c0.133-0.259,0.357-0.451,0.634-0.542c0.11-0.036,0.223-0.054,0.338-0.054
			c0.473,0,0.889,0.303,1.035,0.753C17.838,8.395,17.814,8.691,17.682,8.95z"/>
	</g>
</g>
<g id="Layer_1_1_">
</g>
</svg>
