<?xml version="1.0" encoding="utf-8"?>
<!-- Generator: Adobe Illustrator 21.1.0, SVG Export Plug-In . SVG Version: 6.00 Build 0)  -->
<svg version="1.1" id="Layer_2" xmlns="http://www.w3.org/2000/svg" xmlns:xlink="http://www.w3.org/1999/xlink" x="0px" y="0px"
	 viewBox="0 0 22 22" style="enable-background:new 0 0 22 22;" xml:space="preserve">
<style type="text/css">
	.st0{fill:#888B90;}
</style>
<g>
	<path class="st0" d="M0.001,22l1.63-6.955l14.34-14.342C16.424,0.249,17.027,0,17.668,0c0.001,0,0.002,0,0.003,0
		c0.64,0.001,1.242,0.25,1.692,0.704l1.935,1.934c0.932,0.936,0.931,2.457,0.001,3.391L6.955,20.368L0.001,22z M2.563,16.098
		L1.541,20.46l4.361-1.023L2.563,16.098z M3.194,15.105l3.7,3.701L18.136,7.568l-3.694-3.713L3.194,15.105z M15.253,3.043
		l3.694,3.713l0.49-0.49l-3.705-3.702L15.253,3.043z M16.544,1.753l3.705,3.703l0.239-0.238c0.485-0.487,0.485-1.281-0.001-1.77
		l-1.935-1.934c-0.235-0.236-0.548-0.366-0.882-0.366c0,0,0,0-0.001,0c-0.335,0-0.649,0.13-0.885,0.366L16.544,1.753z"/>
</g>
</svg>
