<?xml version="1.0" encoding="utf-8"?>
<!-- Generator: Adobe Illustrator 21.1.0, SVG Export Plug-In . SVG Version: 6.00 Build 0)  -->
<svg version="1.1" id="Layer_1" xmlns="http://www.w3.org/2000/svg" xmlns:xlink="http://www.w3.org/1999/xlink" x="0px" y="0px"
	 viewBox="0 0 20 20" style="enable-background:new 0 0 20 20;" xml:space="preserve">
<style type="text/css">
	.st0{opacity:0.33;}
	.st1{fill:#EDEDED;}
</style>
<g id="general_1_" class="st0">
	<g>
		<path d="M0.54,10.358h7.948V2.41H0.54V10.358z M1.39,3.26h6.248v6.248H1.39V3.26z"/>
		<path d="M9.475,2.41v7.948h7.948V2.41H9.475z M16.573,9.508h-6.248V3.26h6.248V9.508z"/>
		<path d="M0.54,19.41h7.948v-7.948H0.54V19.41z M1.39,12.311h6.248v6.248H1.39V12.311z"/>
		<path d="M9.475,19.41h7.948v-7.948H9.475C9.475,11.461,9.475,19.41,9.475,19.41z M10.325,12.311h6.248v6.248h-6.248V12.311z"/>
	</g>
</g>
<g id="Layer_1_2_" class="st0">
</g>
<g id="general">
	<g>
		<path class="st1" d="M1.49,9.448h7.948V1.5H1.49V9.448z M2.34,2.35h6.248v6.248H2.34V2.35z"/>
		<path class="st1" d="M10.424,1.5v7.948h7.948V1.5H10.424z M17.523,8.598h-6.248V2.35h6.248V8.598z"/>
		<path class="st1" d="M1.49,18.5h7.948v-7.948H1.49V18.5z M2.34,11.402h6.248v6.248H2.34V11.402z"/>
		<path class="st1" d="M10.424,18.5h7.948v-7.948h-7.948C10.424,10.552,10.424,18.5,10.424,18.5z M11.274,11.402h6.248v6.248h-6.248
			V11.402z"/>
	</g>
</g>
<g id="Layer_1_1_">
</g>
</svg>
