<?xml version="1.0" encoding="utf-8"?>
<!-- Generator: Adobe Illustrator 21.1.0, SVG Export Plug-In . SVG Version: 6.00 Build 0)  -->
<svg version="1.1" id="Layer_1" xmlns="http://www.w3.org/2000/svg" xmlns:xlink="http://www.w3.org/1999/xlink" x="0px" y="0px"
	 viewBox="0 0 20 20" style="enable-background:new 0 0 20 20;" xml:space="preserve">
<style type="text/css">
	.st0{display:none;}
	.st1{display:inline;fill:#EDEDED;}
	.st2{opacity:0.33;}
	.st3{fill:#EDEDED;}
</style>
<g id="Groups">
	<g class="st0">
		<path class="st1" d="M15.632,9.787c0.886,0,1.604-0.719,1.604-1.604c0-0.886-0.718-1.604-1.604-1.604
			c-0.885,0-1.604,0.719-1.604,1.604C14.029,9.068,14.747,9.787,15.632,9.787L15.632,9.787z"/>
		<path class="st1" d="M16.313,10.603h-1.361c-1.132,0-2.053,0.921-2.053,2.053v1.664l0.004,0.026l0.115,0.036
			c1.08,0.337,2.019,0.45,2.791,0.45c1.509,0,2.383-0.431,2.438-0.457l0.107-0.054h0.011v-1.663
			C18.366,11.525,17.444,10.603,16.313,10.603L16.313,10.603z"/>
	</g>
</g>
<g id="Layer_1_1_">
</g>
<g>
	<g class="st2">
		<path d="M14.924,11.041c0.981,0,1.78-0.798,1.78-1.779s-0.798-1.779-1.78-1.779c-0.98,0-1.779,0.798-1.779,1.779
			C13.144,10.242,13.942,11.041,14.924,11.041z M14.924,8.12c0.629,0,1.142,0.512,1.142,1.141s-0.513,1.141-1.142,1.141
			c-0.629,0-1.141-0.512-1.141-1.141C13.782,8.632,14.293,8.12,14.924,8.12z"/>
		<path d="M15.542,11.3h-1.239c-0.21,0-0.426,0.036-0.659,0.111c-0.088,0.028-0.158,0.091-0.195,0.175
			c-0.037,0.084-0.036,0.18,0.002,0.262c0.225,0.488,0.338,0.993,0.337,1.501v2.053c0,0.16,0.12,0.296,0.278,0.317
			c0.365,0.047,0.708,0.071,1.017,0.071c1.421,0,2.27-0.404,2.364-0.451l0.055-0.029c0.131-0.04,0.226-0.161,0.226-0.304v-1.516
			C17.73,12.282,16.749,11.3,15.542,11.3z M17.092,14.799c-0.254,0.108-1.176,0.46-2.667,0.318v-1.767
			c0.001-0.475-0.082-0.946-0.248-1.405c0.042-0.004,0.084-0.007,0.124-0.007h1.239c0.854,0,1.551,0.695,1.551,1.551L17.092,14.799
			L17.092,14.799z"/>
		<path d="M3.631,11.041c0.98,0,1.779-0.798,1.779-1.779s-0.798-1.78-1.779-1.78S1.853,8.28,1.853,9.261S2.651,11.041,3.631,11.041z
			 M3.631,8.12c0.629,0,1.141,0.512,1.141,1.141s-0.512,1.141-1.141,1.141S2.49,9.89,2.49,9.261C2.49,8.632,3.002,8.12,3.631,8.12z"
			/>
		<path d="M4.911,11.411C4.677,11.336,4.46,11.3,4.25,11.3H3.012c-0.584,0-1.133,0.228-1.547,0.642
			c-0.414,0.413-0.641,0.963-0.641,1.547v1.514c0,0.132,0.086,0.245,0.203,0.294l0.08,0.042c0.092,0.047,0.941,0.45,2.362,0.45
			c0.31,0,0.652-0.024,1.017-0.071c0.159-0.02,0.278-0.157,0.278-0.317v-2.053c0-0.509,0.113-1.012,0.338-1.501
			c0.038-0.082,0.038-0.178,0.002-0.262C5.069,11.503,4.998,11.439,4.911,11.411z M4.127,13.348v1.768
			c-1.491,0.143-2.416-0.21-2.666-0.317v-1.311c0-0.413,0.161-0.803,0.454-1.096c0.294-0.294,0.683-0.455,1.096-0.455H4.25
			c0.041,0,0.082,0.003,0.124,0.007C4.211,12.404,4.127,12.873,4.127,13.348z"/>
		<path d="M9.277,9.522c1.279,0,2.32-1.041,2.32-2.32s-1.04-2.318-2.32-2.318c-1.278,0-2.319,1.041-2.319,2.32
			S7.999,9.522,9.277,9.522z M9.277,5.734c0.81,0,1.469,0.659,1.469,1.469s-0.659,1.468-1.469,1.468
			c-0.81,0-1.468-0.659-1.468-1.468S8.468,5.734,9.277,5.734z"/>
		<path d="M10.076,9.978H8.48c-1.776,0-3.221,1.445-3.221,3.221v1.953c0,0.039,0.011,0.131,0.018,0.168
			c0.053,0.301,0.265,0.546,0.555,0.636l0.138,0.044c1.201,0.373,2.385,0.563,3.517,0.563c2.028,0,3.184-0.603,3.229-0.633
			c0.341-0.101,0.582-0.421,0.582-0.779V13.2c0.001-0.861-0.334-1.669-0.942-2.278C11.745,10.314,10.935,9.978,10.076,9.978z
			 M12.474,15.115l-0.154,0.069c-0.011,0.006-1.037,0.53-2.835,0.53c-1.046,0-2.144-0.177-3.261-0.525l-0.116-0.037V13.2
			c0-1.308,1.064-2.371,2.371-2.371h1.596c0.632,0,1.229,0.248,1.677,0.696c0.448,0.448,0.693,1.044,0.693,1.676L12.474,15.115z"/>
	</g>
	<g>
		<path class="st3" d="M15.647,10.317c0.981,0,1.78-0.798,1.78-1.779s-0.798-1.779-1.78-1.779c-0.98,0-1.779,0.798-1.779,1.779
			C13.868,9.518,14.666,10.317,15.647,10.317z M15.647,7.396c0.629,0,1.142,0.512,1.142,1.141c0,0.629-0.513,1.141-1.142,1.141
			c-0.629,0-1.141-0.512-1.141-1.141C14.506,7.908,15.017,7.396,15.647,7.396z"/>
		<path class="st3" d="M16.266,10.576h-1.239c-0.21,0-0.426,0.036-0.659,0.111c-0.088,0.028-0.158,0.091-0.195,0.175
			c-0.037,0.084-0.036,0.18,0.002,0.262c0.225,0.488,0.338,0.993,0.337,1.501v2.053c0,0.16,0.12,0.296,0.278,0.317
			c0.365,0.047,0.708,0.071,1.017,0.071c1.421,0,2.27-0.404,2.364-0.451l0.055-0.029c0.131-0.04,0.226-0.161,0.226-0.304v-1.516
			C18.454,11.558,17.473,10.576,16.266,10.576z M17.816,14.075c-0.254,0.108-1.176,0.46-2.667,0.318v-1.767
			c0.001-0.475-0.082-0.946-0.248-1.405c0.042-0.004,0.084-0.007,0.124-0.007h1.239c0.854,0,1.551,0.695,1.551,1.551L17.816,14.075
			L17.816,14.075z"/>
		<path class="st3" d="M4.355,10.317c0.98,0,1.779-0.798,1.779-1.779s-0.798-1.78-1.779-1.78S2.576,7.556,2.576,8.537
			S3.375,10.317,4.355,10.317z M4.355,7.396c0.629,0,1.141,0.512,1.141,1.141c0,0.629-0.512,1.141-1.141,1.141
			S3.214,9.166,3.214,8.537C3.214,7.908,3.726,7.396,4.355,7.396z"/>
		<path class="st3" d="M5.635,10.687c-0.234-0.075-0.451-0.111-0.661-0.111H3.736c-0.584,0-1.133,0.228-1.547,0.642
			c-0.414,0.413-0.641,0.963-0.641,1.547v1.514c0,0.132,0.086,0.245,0.203,0.294l0.08,0.042c0.092,0.047,0.941,0.45,2.362,0.45
			c0.31,0,0.652-0.024,1.017-0.071c0.159-0.02,0.278-0.157,0.278-0.317v-2.053c0-0.509,0.113-1.012,0.338-1.501
			c0.038-0.082,0.038-0.178,0.002-0.262C5.792,10.779,5.722,10.715,5.635,10.687z M4.851,12.624v1.768
			c-1.491,0.143-2.416-0.21-2.666-0.317v-1.311c0-0.413,0.161-0.803,0.454-1.096c0.294-0.294,0.683-0.455,1.096-0.455h1.239
			c0.041,0,0.082,0.003,0.124,0.007C4.935,11.68,4.851,12.149,4.851,12.624z"/>
		<path class="st3" d="M10.001,8.798c1.279,0,2.32-1.041,2.32-2.32s-1.04-2.318-2.32-2.318c-1.278,0-2.319,1.041-2.319,2.32
			S8.723,8.798,10.001,8.798z M10.001,5.01c0.81,0,1.469,0.659,1.469,1.469s-0.659,1.468-1.469,1.468S8.533,7.288,8.533,6.479
			S9.192,5.01,10.001,5.01z"/>
		<path class="st3" d="M10.8,9.254H9.204c-1.776,0-3.221,1.445-3.221,3.221v1.953c0,0.039,0.011,0.131,0.018,0.168
			c0.053,0.301,0.265,0.546,0.555,0.636l0.138,0.044c1.201,0.373,2.385,0.563,3.517,0.563c2.028,0,3.184-0.603,3.229-0.633
			c0.341-0.101,0.582-0.421,0.582-0.779v-1.952c0.001-0.861-0.334-1.669-0.942-2.278C12.469,9.59,11.659,9.254,10.8,9.254z
			 M13.198,14.391l-0.154,0.069c-0.011,0.006-1.037,0.53-2.835,0.53c-1.046,0-2.144-0.177-3.261-0.525l-0.116-0.037v-1.953
			c0-1.308,1.064-2.371,2.371-2.371H10.8c0.632,0,1.229,0.248,1.677,0.696c0.448,0.448,0.693,1.044,0.693,1.676L13.198,14.391z"/>
	</g>
</g>
</svg>
