<?xml version="1.0" encoding="utf-8"?>
<!-- Generator: Adobe Illustrator 21.1.0, SVG Export Plug-In . SVG Version: 6.00 Build 0)  -->
<svg version="1.1" id="Icons" xmlns="http://www.w3.org/2000/svg" xmlns:xlink="http://www.w3.org/1999/xlink" x="0px" y="0px"
	 viewBox="0 0 22 22" style="enable-background:new 0 0 22 22;" xml:space="preserve">
<style type="text/css">
	.st0{opacity:0.33;}
	.st1{fill:#EDEDED;}
</style>
<title>help</title>
<g class="st0">
	<path d="M9.827,2.176C4.409,2.176,0,5.818,0,10.308c0.049,2.161,1.003,4.155,2.635,5.541l-1.883,3.758
		c-0.107,0.214-0.068,0.472,0.099,0.644c0.109,0.112,0.255,0.171,0.404,0.171c0.08,0,0.161-0.017,0.237-0.052l5.158-2.393
		c1.031,0.291,2.095,0.439,3.168,0.439c0.003,0,0.006,0,0.009,0c5.419,0,9.828-3.642,9.828-8.12
		C19.655,5.818,15.247,2.176,9.827,2.176z M9.827,17.29c-0.003,0-0.006,0-0.008,0c-1.035,0-2.061-0.152-3.051-0.452
		c-0.132-0.04-0.276-0.029-0.4,0.028l-3.889,1.804l1.365-2.725c0.122-0.243,0.052-0.54-0.166-0.703
		c-1.579-1.18-2.509-2.988-2.554-4.947c0-3.857,3.904-6.994,8.702-6.994c4.799,0,8.703,3.138,8.703,6.994
		C18.53,14.152,14.626,17.29,9.827,17.29z"/>
	<circle cx="10.23" cy="14.018" r="0.965"/>
	<path d="M10.23,5.399c-1.643,0-2.979,1.336-2.979,2.979c0,0.311,0.252,0.562,0.562,0.562c0.311,0,0.562-0.252,0.562-0.562
		c0-1.023,0.832-1.854,1.854-1.854s1.854,0.832,1.854,1.854s-0.831,1.854-1.854,1.854c-0.311,0-0.562,0.252-0.562,0.562v1.208
		c0,0.31,0.252,0.562,0.562,0.562s0.563-0.252,0.563-0.562v-0.699c1.375-0.264,2.416-1.476,2.416-2.926
		C13.21,6.735,11.873,5.399,10.23,5.399z"/>
</g>
<title>help</title>
<g>
	<path class="st1" d="M11,1.877c-5.419,0-9.827,3.642-9.827,8.132c0.049,2.161,1.003,4.155,2.635,5.541l-1.883,3.758
		c-0.107,0.214-0.068,0.472,0.099,0.644c0.109,0.112,0.255,0.171,0.404,0.171c0.08,0,0.161-0.017,0.237-0.052l5.158-2.393
		c1.031,0.291,2.095,0.439,3.168,0.439c0.003,0,0.006,0,0.009,0c5.419,0,9.828-3.642,9.828-8.12C20.828,5.519,16.419,1.877,11,1.877
		z M10.999,16.991c-0.003,0-0.006,0-0.008,0c-1.035,0-2.061-0.152-3.051-0.452c-0.132-0.04-0.276-0.029-0.4,0.028l-3.889,1.804
		l1.365-2.725c0.122-0.243,0.052-0.54-0.166-0.703c-1.579-1.18-2.509-2.988-2.554-4.947c0-3.857,3.904-6.994,8.702-6.994
		c4.799,0,8.703,3.138,8.703,6.994C19.703,13.854,15.799,16.991,10.999,16.991z"/>
	<circle class="st1" cx="11.403" cy="13.719" r="0.965"/>
	<path class="st1" d="M11.403,5.1c-1.643,0-2.979,1.336-2.979,2.979c0,0.311,0.252,0.562,0.562,0.562
		c0.311,0,0.562-0.252,0.562-0.562c0-1.023,0.832-1.854,1.854-1.854s1.854,0.832,1.854,1.854s-0.831,1.854-1.854,1.854
		c-0.311,0-0.562,0.252-0.562,0.562v1.208c0,0.31,0.252,0.562,0.562,0.562c0.311,0,0.563-0.252,0.563-0.562v-0.699
		c1.375-0.264,2.416-1.476,2.416-2.926C14.382,6.436,13.045,5.1,11.403,5.1z"/>
</g>
</svg>
