<?xml version="1.0" encoding="utf-8"?>
<!-- Generator: Adobe Illustrator 21.1.0, SVG Export Plug-In . SVG Version: 6.00 Build 0)  -->
<svg version="1.1" id="Layer_1" xmlns="http://www.w3.org/2000/svg" xmlns:xlink="http://www.w3.org/1999/xlink" x="0px" y="0px"
	 viewBox="0 0 20 20" style="enable-background:new 0 0 20 20;" xml:space="preserve">
<style type="text/css">
	.st0{opacity:0.33;}
	.st1{fill:#EDEDED;}
</style>
<g>
	<path class="st0" d="M17.189,9.73L9.071,1.612c-0.149-0.149-0.392-0.149-0.541,0L0.411,9.729C0.338,9.804,0.301,9.901,0.3,9.998
		v0.004v0.001c0.001,0.096,0.038,0.195,0.111,0.268l8.118,8.117C8.605,18.463,8.702,18.5,8.8,18.5c0.098,0,0.196-0.039,0.27-0.112
		l8.118-8.118C17.338,10.121,17.338,9.879,17.189,9.73z M8.8,2.423l3.519,3.518l-1.246,1.245c-0.072,0.072-0.112,0.169-0.112,0.27
		s0.041,0.199,0.112,0.271l0.401,0.401c0.076,0.077,0.182,0.117,0.291,0.111c0.217-0.011,0.424,0.063,0.565,0.206c0,0,0,0,0,0
		c0,0,0,0,0.001,0c0.292,0.291,0.292,0.764,0,1.055c-0.29,0.291-0.764,0.291-1.054,0c0,0,0,0,0-0.001c0,0,0,0-0.001,0
		c-0.196-0.196-0.227-0.468-0.23-0.575c-0.004-0.096-0.043-0.188-0.111-0.256l-0.401-0.401c-0.075-0.075-0.173-0.112-0.271-0.112
		s-0.196,0.038-0.27,0.112L8.8,9.458L7.853,8.51l0.022-0.022C8.142,8.457,8.521,8.356,8.818,8.06c0.589-0.589,0.589-1.548,0-2.138
		C8.533,5.636,8.153,5.479,7.749,5.479c-0.403,0-0.783,0.157-1.069,0.443C6.417,6.186,6.264,6.519,6.24,6.876L6.229,6.887
		L5.283,5.941L8.8,2.423z M1.224,10l3.518-3.519l1.218,1.218c0.149,0.149,0.392,0.149,0.541,0l0.392-0.392
		C6.969,7.23,7.009,7.125,7.004,7.016C6.992,6.811,7.07,6.614,7.222,6.463c0.291-0.291,0.764-0.291,1.055,0
		c0.141,0.141,0.218,0.329,0.218,0.528c0,0.199-0.077,0.387-0.219,0.529c-0.182,0.181-0.47,0.213-0.587,0.216
		C7.593,7.739,7.501,7.779,7.434,7.849L7.041,8.241C6.967,8.315,6.93,8.413,6.93,8.511c0,0.098,0.037,0.196,0.112,0.27L8.259,10
		l-0.947,0.947L7.29,10.926c-0.031-0.268-0.132-0.647-0.429-0.945C6.647,9.768,6.38,9.626,6.089,9.568
		C5.992,9.549,5.893,9.539,5.792,9.539c-0.404,0-0.783,0.157-1.069,0.443c-0.285,0.285-0.443,0.666-0.443,1.069
		c0,0.403,0.157,0.781,0.443,1.069c0.264,0.262,0.597,0.415,0.954,0.439l0.011,0.011L4.74,13.517L1.224,10z M8.8,17.576
		l-3.518-3.519L6.5,12.84c0.149-0.149,0.149-0.391,0-0.54l-0.392-0.393c-0.077-0.076-0.182-0.116-0.291-0.11
		c-0.204,0.011-0.401-0.066-0.553-0.217c-0.141-0.142-0.218-0.329-0.218-0.529c0-0.199,0.077-0.386,0.218-0.528
		c0.141-0.141,0.329-0.217,0.528-0.217c0.199,0,0.386,0.076,0.528,0.219c0.183,0.182,0.213,0.47,0.217,0.586
		c0.004,0.096,0.043,0.188,0.112,0.257l0.392,0.391c0.149,0.149,0.392,0.149,0.541,0L8.8,10.541l0.92,0.918l0,0l0.001,0.001
		l-0.033,0.031c-0.358,0.046-0.691,0.203-0.929,0.441c-0.285,0.286-0.443,0.666-0.443,1.07c0,0.402,0.157,0.782,0.443,1.068
		c0.285,0.286,0.665,0.444,1.069,0.444c0.404,0,0.783-0.157,1.07-0.445c0.252-0.252,0.404-0.599,0.427-0.966l0.02-0.02l0.001,0.001
		l0,0l0.973,0.973l0.001,0.001L8.8,17.576z M12.858,13.517l-1.245-1.245c-0.072-0.072-0.169-0.112-0.269-0.112
		c-0.101,0-0.199,0.041-0.27,0.112l-0.401,0.402c-0.077,0.076-0.118,0.18-0.112,0.29c0.012,0.217-0.062,0.424-0.205,0.565
		c-0.292,0.292-0.765,0.292-1.055,0c0,0,0,0,0-0.001c0,0,0,0,0,0c-0.291-0.289-0.291-0.763,0-1.053
		c0.196-0.196,0.467-0.227,0.575-0.23c0.096-0.004,0.188-0.044,0.256-0.112l0.401-0.4c0.149-0.149,0.149-0.393,0-0.542l-0.587-0.587
		l-0.603-0.602l0,0L9.341,10l0.92-0.92l0.017,0.017l0.015,0.016c0.046,0.359,0.203,0.691,0.441,0.929
		c0.029,0.029,0.063,0.051,0.094,0.077c0.045,0.039,0.089,0.08,0.138,0.113c0.246,0.165,0.535,0.253,0.838,0.253
		c0.402,0,0.782-0.158,1.068-0.444c0.286-0.285,0.443-0.665,0.443-1.069c0-0.404-0.157-0.782-0.442-1.069
		c-0.254-0.255-0.6-0.405-0.966-0.428l-0.001-0.001l0,0l-0.022-0.021l0.974-0.974l0.002,0.002l0,0L16.377,10L12.858,13.517z"/>
	<path class="st1" d="M18.389,9.73l-8.118-8.118c-0.149-0.149-0.392-0.149-0.541,0L1.611,9.729C1.537,9.804,1.5,9.901,1.5,9.998
		v0.004v0.001c0.001,0.096,0.038,0.195,0.111,0.268l8.118,8.117C9.804,18.463,9.902,18.5,10,18.5c0.098,0,0.196-0.039,0.27-0.112
		l8.118-8.118C18.538,10.121,18.538,9.879,18.389,9.73z M10,2.423l3.519,3.518l-1.246,1.245c-0.072,0.072-0.112,0.169-0.112,0.27
		s0.041,0.199,0.112,0.271l0.401,0.401c0.076,0.077,0.182,0.117,0.291,0.111c0.217-0.011,0.424,0.063,0.565,0.206c0,0,0,0,0,0
		c0,0,0,0,0.001,0c0.292,0.291,0.292,0.764,0,1.055c-0.29,0.291-0.764,0.291-1.054,0c0,0,0,0,0-0.001s0,0-0.001,0
		c-0.196-0.196-0.227-0.468-0.23-0.575c-0.004-0.096-0.043-0.188-0.111-0.256l-0.401-0.401c-0.075-0.075-0.173-0.112-0.271-0.112
		s-0.196,0.038-0.27,0.112L10,9.458L9.052,8.51l0.022-0.022C9.341,8.457,9.72,8.356,10.018,8.06c0.589-0.589,0.589-1.548,0-2.138
		C9.733,5.636,9.353,5.479,8.948,5.479c-0.403,0-0.783,0.157-1.069,0.443C7.617,6.186,7.464,6.519,7.44,6.876L7.429,6.887
		L6.482,5.941L10,2.423z M2.423,10l3.518-3.519l1.218,1.218c0.149,0.149,0.392,0.149,0.541,0l0.392-0.392
		C8.168,7.23,8.209,7.125,8.203,7.016C8.192,6.811,8.269,6.614,8.421,6.463c0.291-0.291,0.764-0.291,1.055,0
		c0.141,0.141,0.218,0.329,0.218,0.528c0,0.199-0.077,0.387-0.219,0.529c-0.182,0.181-0.47,0.213-0.587,0.216
		C8.793,7.739,8.701,7.779,8.633,7.849L8.241,8.241c-0.074,0.074-0.112,0.172-0.112,0.27c0,0.098,0.037,0.196,0.112,0.27L9.459,10
		l-0.947,0.947l-0.022-0.021c-0.031-0.268-0.132-0.647-0.429-0.945C7.847,9.768,7.58,9.626,7.289,9.568
		C7.192,9.549,7.092,9.539,6.991,9.539c-0.404,0-0.783,0.157-1.069,0.443c-0.285,0.285-0.443,0.666-0.443,1.069
		c0,0.403,0.157,0.781,0.443,1.069c0.264,0.262,0.597,0.415,0.954,0.439l0.011,0.011L5.94,13.517L2.423,10z M10,17.576l-3.518-3.519
		L7.7,12.84c0.149-0.149,0.149-0.391,0-0.54l-0.392-0.393c-0.077-0.076-0.182-0.116-0.291-0.11
		c-0.204,0.011-0.401-0.066-0.553-0.217c-0.141-0.142-0.218-0.329-0.218-0.529c0-0.199,0.077-0.386,0.218-0.528
		c0.141-0.141,0.329-0.217,0.528-0.217s0.386,0.076,0.528,0.219c0.183,0.182,0.213,0.47,0.217,0.586
		c0.004,0.096,0.043,0.188,0.112,0.257l0.392,0.391c0.149,0.149,0.392,0.149,0.541,0L10,10.541l0.92,0.918l0,0l0.001,0.001
		l-0.033,0.031c-0.358,0.046-0.691,0.203-0.929,0.441c-0.285,0.286-0.443,0.666-0.443,1.07c0,0.402,0.157,0.782,0.443,1.068
		c0.285,0.286,0.665,0.444,1.069,0.444c0.404,0,0.783-0.157,1.07-0.445c0.252-0.252,0.404-0.599,0.427-0.966l0.02-0.02l0.001,0.001
		l0,0l0.973,0.973l0.001,0.001L10,17.576z M14.058,13.517l-1.245-1.245c-0.072-0.072-0.169-0.112-0.269-0.112
		c-0.101,0-0.199,0.041-0.27,0.112l-0.401,0.402c-0.077,0.076-0.118,0.18-0.112,0.29c0.012,0.217-0.062,0.424-0.205,0.565
		c-0.292,0.292-0.765,0.292-1.055,0c0,0,0,0,0-0.001c0,0,0,0,0,0c-0.291-0.289-0.291-0.763,0-1.053
		c0.196-0.196,0.467-0.227,0.575-0.23c0.096-0.004,0.188-0.044,0.256-0.112l0.401-0.4c0.149-0.149,0.149-0.393,0-0.542l-0.587-0.587
		l-0.603-0.602l0,0L10.54,10l0.92-0.92l0.017,0.017l0.015,0.016c0.046,0.359,0.203,0.691,0.441,0.929
		c0.029,0.029,0.063,0.051,0.094,0.077c0.045,0.039,0.089,0.08,0.138,0.113c0.246,0.165,0.535,0.253,0.838,0.253
		c0.402,0,0.782-0.158,1.068-0.444c0.286-0.285,0.443-0.665,0.443-1.069c0-0.404-0.157-0.782-0.442-1.069
		c-0.254-0.255-0.6-0.405-0.966-0.428l-0.001-0.001l0,0l-0.022-0.021l0.974-0.974l0.002,0.002l0,0L17.576,10L14.058,13.517z"/>
</g>
</svg>
