<?xml version="1.0" encoding="utf-8"?>
<!-- Generator: Adobe Illustrator 21.1.0, SVG Export Plug-In . SVG Version: 6.00 Build 0)  -->
<svg version="1.1" id="Layer_1" xmlns="http://www.w3.org/2000/svg" xmlns:xlink="http://www.w3.org/1999/xlink" x="0px" y="0px"
	 viewBox="0 0 20 20" style="enable-background:new 0 0 20 20;" xml:space="preserve">
<style type="text/css">
	.st0{opacity:0.33;}
	.st1{fill:#EDEDED;}
</style>
<g id="Layer_1_2_" class="st0">
</g>
<g>
	<g id="license_1_" class="st0">
		<g>
			<path d="M15.617,3.631H2.148c-1.006,0-1.765,0.759-1.765,1.765v9.754c0,1.006,0.759,1.765,1.765,1.765h7.245v-0.929H2.148
				c-0.484,0-0.836-0.352-0.836-0.836V5.396c0-0.484,0.351-0.836,0.836-0.836h13.469c0.484,0,0.836,0.351,0.836,0.836v9.754
				c0,0.391-0.445,0.836-0.836,0.836h-0.464v0.929h0.464c0.908,0,1.765-0.858,1.765-1.765V5.396
				C17.382,4.39,16.623,3.631,15.617,3.631z"/>
			<path d="M2.427,8.182h3.716c0.256,0,0.464-0.208,0.464-0.464c0-0.256-0.208-0.464-0.464-0.464H2.427
				c-0.256,0-0.464,0.208-0.464,0.464C1.962,7.974,2.17,8.182,2.427,8.182z"/>
			<path d="M2.427,10.04h4.645c0.256,0,0.464-0.208,0.464-0.464c0-0.256-0.208-0.464-0.464-0.464H2.427
				c-0.256,0-0.464,0.208-0.464,0.464C1.962,9.832,2.17,10.04,2.427,10.04z"/>
			<path d="M2.427,11.898H8c0.256,0,0.464-0.208,0.464-0.464c0-0.256-0.208-0.464-0.464-0.464H2.427
				c-0.256,0-0.464,0.208-0.464,0.464C1.962,11.69,2.17,11.898,2.427,11.898z"/>
			<path d="M14.702,9.499c-0.003-0.081,0.063-0.202,0.126-0.319c0.099-0.184,0.212-0.392,0.139-0.593
				c-0.073-0.203-0.294-0.293-0.488-0.372c-0.116-0.047-0.248-0.1-0.296-0.163c-0.046-0.06-0.065-0.201-0.081-0.324
				c-0.028-0.21-0.059-0.447-0.24-0.57c-0.033-0.023-0.071-0.04-0.111-0.052c-0.153-0.045-0.325-0.002-0.491,0.039
				c-0.131,0.033-0.267,0.066-0.347,0.043c-0.081-0.023-0.176-0.124-0.27-0.222c-0.118-0.124-0.24-0.252-0.393-0.296
				c-0.041-0.012-0.081-0.018-0.122-0.016c-0.219,0.007-0.372,0.19-0.508,0.352c-0.08,0.096-0.17,0.203-0.242,0.229
				c-0.073,0.027-0.214,0.001-0.337-0.022c-0.206-0.038-0.44-0.081-0.611,0.051c-0.169,0.131-0.187,0.367-0.202,0.575
				c-0.009,0.133-0.02,0.269-0.065,0.336c-0.041,0.061-0.166,0.121-0.277,0.173C9.694,8.44,9.475,8.545,9.413,8.758
				C9.351,8.972,9.479,9.176,9.592,9.356C9.657,9.46,9.731,9.577,9.734,9.652C9.736,9.733,9.67,9.853,9.607,9.97
				c-0.099,0.184-0.212,0.391-0.139,0.593c0.073,0.203,0.294,0.293,0.488,0.372c0.117,0.047,0.249,0.1,0.296,0.163
				c0.046,0.06,0.065,0.201,0.081,0.324c0.028,0.209,0.059,0.447,0.241,0.569c0.033,0.023,0.071,0.04,0.111,0.052
				c0.153,0.045,0.325,0.002,0.491-0.039c0.131-0.033,0.267-0.066,0.347-0.043c0.081,0.023,0.176,0.124,0.269,0.222
				c0.118,0.124,0.241,0.252,0.393,0.296c0.04,0.012,0.081,0.017,0.122,0.016c0.218-0.007,0.372-0.19,0.508-0.352
				c0.08-0.096,0.171-0.203,0.242-0.229c0.073-0.027,0.214-0.001,0.337,0.022c0.206,0.038,0.44,0.081,0.611-0.051
				c0.169-0.131,0.187-0.367,0.202-0.575c0.009-0.133,0.02-0.27,0.065-0.336c0.042-0.061,0.167-0.121,0.278-0.173
				c0.192-0.091,0.411-0.195,0.473-0.409c0.062-0.214-0.066-0.418-0.179-0.598C14.778,9.691,14.704,9.574,14.702,9.499z
				 M13.238,9.873c-0.164,0.564-0.754,0.888-1.318,0.724c-0.564-0.164-0.888-0.754-0.724-1.318c0.164-0.564,0.754-0.887,1.318-0.723
				C13.079,8.719,13.403,9.309,13.238,9.873z"/>
			<path d="M13.628,12.975c-0.047-0.01-0.116-0.024-0.17-0.033c-0.039,0.04-0.085,0.093-0.11,0.12
				c-0.202,0.227-0.505,0.568-0.983,0.568c-0.051,0.001-0.194-0.015-0.291-0.046c-0.308-0.1-0.513-0.329-0.677-0.512
				c-0.035-0.04-0.087-0.097-0.126-0.136c-0.054,0.008-0.127,0.023-0.176,0.033c-0.199,0.044-0.435,0.089-0.68,0.053v5.655
				l1.951-1.208l1.951,1.208v-5.658C14.063,13.059,13.814,13.016,13.628,12.975z"/>
		</g>
	</g>
	<g id="license">
		<g>
			<path class="st1" d="M16.735,2.476H3.265c-1.006,0-1.765,0.759-1.765,1.765v9.754c0,1.006,0.759,1.765,1.765,1.765h7.245V14.83
				H3.265c-0.484,0-0.836-0.352-0.836-0.836V4.241c0-0.484,0.351-0.836,0.836-0.836h13.469c0.484,0,0.836,0.351,0.836,0.836v9.754
				c0,0.391-0.445,0.836-0.836,0.836H16.27v0.929h0.464c0.908,0,1.765-0.858,1.765-1.765V4.241
				C18.499,3.235,17.741,2.476,16.735,2.476z"/>
			<path class="st1" d="M3.544,7.028H7.26c0.256,0,0.464-0.208,0.464-0.464c0-0.256-0.208-0.464-0.464-0.464H3.544
				c-0.256,0-0.464,0.208-0.464,0.464C3.08,6.819,3.287,7.028,3.544,7.028z"/>
			<path class="st1" d="M3.544,8.885h4.645c0.256,0,0.464-0.208,0.464-0.464c0-0.256-0.208-0.464-0.464-0.464H3.544
				c-0.256,0-0.464,0.208-0.464,0.464C3.08,8.677,3.287,8.885,3.544,8.885z"/>
			<path class="st1" d="M3.544,10.743h5.573c0.256,0,0.464-0.208,0.464-0.464c0-0.256-0.208-0.464-0.464-0.464H3.544
				c-0.256,0-0.464,0.208-0.464,0.464C3.08,10.535,3.287,10.743,3.544,10.743z"/>
			<path class="st1" d="M15.82,8.345c-0.003-0.081,0.063-0.202,0.126-0.319c0.099-0.184,0.212-0.392,0.139-0.593
				c-0.073-0.203-0.294-0.293-0.488-0.372c-0.116-0.047-0.248-0.1-0.296-0.163c-0.046-0.06-0.065-0.201-0.081-0.324
				c-0.028-0.21-0.059-0.447-0.24-0.57c-0.033-0.023-0.071-0.04-0.111-0.052c-0.153-0.045-0.325-0.002-0.491,0.039
				c-0.131,0.033-0.267,0.066-0.347,0.043c-0.081-0.023-0.176-0.124-0.27-0.222c-0.118-0.124-0.24-0.252-0.393-0.296
				c-0.041-0.012-0.081-0.018-0.122-0.016c-0.219,0.007-0.372,0.19-0.508,0.352c-0.08,0.096-0.17,0.203-0.242,0.229
				c-0.073,0.027-0.214,0.001-0.337-0.022c-0.206-0.038-0.44-0.081-0.611,0.051c-0.169,0.131-0.187,0.367-0.202,0.575
				c-0.009,0.133-0.02,0.269-0.065,0.336c-0.041,0.061-0.166,0.121-0.277,0.173c-0.192,0.091-0.411,0.195-0.473,0.409
				c-0.062,0.214,0.066,0.418,0.179,0.598c0.065,0.104,0.138,0.221,0.141,0.295c0.003,0.081-0.063,0.202-0.126,0.319
				C10.625,9,10.513,9.207,10.585,9.408c0.073,0.203,0.294,0.293,0.488,0.372c0.117,0.047,0.249,0.1,0.296,0.163
				c0.046,0.06,0.065,0.201,0.081,0.324c0.028,0.209,0.059,0.447,0.241,0.569c0.033,0.023,0.071,0.04,0.111,0.052
				c0.153,0.045,0.325,0.002,0.491-0.039c0.131-0.033,0.267-0.066,0.347-0.043c0.081,0.023,0.176,0.124,0.269,0.222
				c0.118,0.124,0.241,0.252,0.393,0.296c0.04,0.012,0.081,0.017,0.122,0.016c0.218-0.007,0.372-0.19,0.508-0.352
				c0.08-0.096,0.171-0.203,0.242-0.229c0.073-0.027,0.214-0.001,0.337,0.022c0.206,0.038,0.44,0.081,0.611-0.051
				c0.169-0.131,0.187-0.367,0.202-0.575c0.009-0.133,0.02-0.27,0.065-0.336c0.042-0.061,0.167-0.121,0.278-0.173
				c0.192-0.091,0.411-0.195,0.473-0.409c0.062-0.214-0.066-0.418-0.179-0.598C15.896,8.536,15.821,8.419,15.82,8.345z
				 M14.356,8.718c-0.164,0.564-0.754,0.888-1.318,0.724s-0.888-0.754-0.724-1.318s0.754-0.887,1.318-0.723
				C14.196,7.564,14.52,8.154,14.356,8.718z"/>
			<path class="st1" d="M14.745,11.821c-0.047-0.01-0.116-0.024-0.17-0.033c-0.039,0.04-0.085,0.093-0.11,0.12
				c-0.202,0.227-0.505,0.568-0.983,0.568c-0.051,0.001-0.194-0.015-0.291-0.046c-0.308-0.1-0.513-0.329-0.677-0.512
				c-0.035-0.04-0.087-0.097-0.126-0.136c-0.054,0.008-0.127,0.023-0.176,0.033c-0.199,0.044-0.435,0.089-0.68,0.053v5.655
				l1.951-1.208l1.951,1.208v-5.658C15.181,11.904,14.932,11.862,14.745,11.821z"/>
		</g>
	</g>
	<g id="Layer_1_1_">
	</g>
</g>
</svg>
