<?xml version="1.0" encoding="utf-8"?>
<!-- Generator: Adobe Illustrator 21.1.0, SVG Export Plug-In . SVG Version: 6.00 Build 0)  -->
<svg version="1.1" id="Layer_1" xmlns="http://www.w3.org/2000/svg" xmlns:xlink="http://www.w3.org/1999/xlink" x="0px" y="0px"
	 viewBox="0 0 20 20" style="enable-background:new 0 0 20 20;" xml:space="preserve">
<style type="text/css">
	.st0{opacity:0.33;}
	.st1{fill:#EDEDED;}
</style>
<g id="Layer_1_2_" class="st0">
</g>
<g id="Layer_1_1_">
</g>
<g>
	<path class="st0" d="M16.284,14.068v-3.956H9.673V7.101c1.345-0.167,2.393-1.305,2.393-2.694c0-1.504-1.223-2.728-2.728-2.728
		c-1.504,0-2.728,1.224-2.728,2.728c0,1.388,1.046,2.524,2.388,2.694v3.012H2.391v3.956C1.047,14.237,0,15.373,0,16.762
		c0,1.505,1.224,2.728,2.728,2.728s2.728-1.223,2.728-2.728c0-1.389-1.047-2.526-2.39-2.694v-3.281h5.932v3.281
		c-1.343,0.169-2.388,1.305-2.388,2.694c0,1.505,1.224,2.728,2.728,2.728c1.505,0,2.728-1.223,2.728-2.728
		c0-1.39-1.048-2.527-2.393-2.694v-3.281h5.937v3.281c-1.344,0.168-2.391,1.305-2.391,2.694c0,1.505,1.223,2.728,2.728,2.728
		s2.728-1.223,2.728-2.728C18.675,15.373,17.628,14.237,16.284,14.068z M7.284,4.407c0-1.132,0.921-2.053,2.053-2.053
		s2.053,0.921,2.053,2.053S10.47,6.46,9.337,6.46S7.284,5.539,7.284,4.407z M4.781,16.762c0,1.132-0.921,2.053-2.053,2.053
		s-2.053-0.921-2.053-2.053s0.921-2.053,2.053-2.053S4.781,15.63,4.781,16.762z M11.391,16.762c0,1.132-0.921,2.053-2.053,2.053
		s-2.053-0.921-2.053-2.053s0.921-2.053,2.053-2.053S11.391,15.63,11.391,16.762z M15.947,18.815c-1.132,0-2.053-0.921-2.053-2.053
		s0.921-2.053,2.053-2.053c1.132,0,2.053,0.921,2.053,2.053S17.079,18.815,15.947,18.815z"/>
	<path class="st1" d="M16.947,13.484V9.528h-6.612V6.516c1.345-0.167,2.393-1.305,2.393-2.694c0-1.504-1.223-2.728-2.728-2.728
		c-1.504,0-2.728,1.224-2.728,2.728c0,1.388,1.046,2.524,2.388,2.694v3.012H3.053v3.956c-1.344,0.168-2.391,1.305-2.391,2.694
		c0,1.505,1.224,2.728,2.728,2.728s2.728-1.223,2.728-2.728c0-1.389-1.047-2.526-2.39-2.694v-3.281H9.66v3.281
		c-1.343,0.169-2.388,1.305-2.388,2.694c0,1.505,1.224,2.728,2.728,2.728c1.505,0,2.728-1.223,2.728-2.728
		c0-1.39-1.048-2.527-2.393-2.694v-3.281h5.937v3.281c-1.344,0.168-2.391,1.305-2.391,2.694c0,1.505,1.223,2.728,2.728,2.728
		s2.728-1.223,2.728-2.728C19.337,14.789,18.291,13.652,16.947,13.484z M7.947,3.822c0-1.132,0.921-2.053,2.053-2.053
		s2.053,0.921,2.053,2.053S11.132,5.875,10,5.875S7.947,4.954,7.947,3.822z M5.443,16.178c0,1.132-0.921,2.053-2.053,2.053
		s-2.053-0.921-2.053-2.053c0-1.132,0.921-2.053,2.053-2.053S5.443,15.046,5.443,16.178z M12.053,16.178
		c0,1.132-0.921,2.053-2.053,2.053s-2.053-0.921-2.053-2.053c0-1.132,0.921-2.053,2.053-2.053S12.053,15.046,12.053,16.178z
		 M16.609,18.231c-1.132,0-2.053-0.921-2.053-2.053c0-1.132,0.921-2.053,2.053-2.053s2.053,0.921,2.053,2.053
		C18.663,17.31,17.741,18.231,16.609,18.231z"/>
</g>
</svg>
