<?xml version="1.0" encoding="utf-8"?>
<!-- Generator: Adobe Illustrator 21.1.0, SVG Export Plug-In . SVG Version: 6.00 Build 0)  -->
<svg version="1.1" id="Layer_1" xmlns="http://www.w3.org/2000/svg" xmlns:xlink="http://www.w3.org/1999/xlink" x="0px" y="0px"
	 viewBox="0 0 20 20" style="enable-background:new 0 0 20 20;" xml:space="preserve">
<style type="text/css">
	.st0{opacity:0.33;}
	.st1{fill:#EDEDED;}
</style>
<g id="Layer_1_2_" class="st0">
</g>
<g class="st0">
	<polygon points="5.035,10.13 5.04,10.13 5.05,10.128 	"/>
	<path d="M10.408,7.096c-0.097-0.097-0.227-0.151-0.366-0.151c-0.138,0-0.268,0.053-0.365,0.151L9.368,7.405
		c-0.097,0.097-0.15,0.229-0.15,0.366c0,0.138,0.053,0.27,0.151,0.367l1.987,1.992H5.04c-0.28,0.006-0.521,0.228-0.521,0.509v0.438
		c0,0.285,0.239,0.53,0.524,0.53h6.336L9.37,13.609c-0.097,0.097-0.151,0.22-0.151,0.358c0,0.139,0.053,0.268,0.151,0.365
		l0.309,0.309c0.097,0.097,0.227,0.151,0.365,0.151c0.139,0,0.268-0.053,0.366-0.151l3.406-3.406
		c0.097-0.097,0.151-0.228,0.151-0.366s-0.053-0.268-0.151-0.366L10.408,7.096z"/>
	<path d="M9.241,2.38c-4.68,0-8.488,3.808-8.488,8.488s3.808,8.488,8.488,8.488s8.488-3.808,8.488-8.488S13.921,2.38,9.241,2.38z
		 M9.241,18.605c-4.267,0-7.738-3.471-7.738-7.738S4.974,3.13,9.241,3.13c4.267,0,7.738,3.471,7.738,7.738
		S13.508,18.605,9.241,18.605z"/>
</g>
<g id="Layer_1_1_">
</g>
<g>
	<polygon class="st1" points="5.794,9.262 5.799,9.262 5.809,9.26 	"/>
	<path class="st1" d="M11.167,6.228c-0.097-0.097-0.227-0.151-0.366-0.151c-0.138,0-0.268,0.053-0.365,0.151l-0.309,0.309
		c-0.097,0.097-0.15,0.229-0.15,0.366c0,0.138,0.053,0.27,0.151,0.367l1.987,1.992H5.799C5.518,9.268,5.278,9.49,5.278,9.771v0.438
		c0,0.285,0.239,0.53,0.524,0.53h6.336l-2.009,2.002c-0.097,0.097-0.151,0.22-0.151,0.358c0,0.139,0.053,0.268,0.151,0.365
		l0.309,0.309c0.097,0.097,0.227,0.151,0.365,0.151c0.139,0,0.268-0.053,0.366-0.151l3.406-3.406
		c0.097-0.097,0.151-0.228,0.151-0.366s-0.053-0.268-0.151-0.366L11.167,6.228z"/>
	<path class="st1" d="M10,1.512C5.32,1.512,1.512,5.32,1.512,10S5.32,18.488,10,18.488S18.488,14.68,18.488,10S14.68,1.512,10,1.512
		z M10,17.738c-4.267,0-7.738-3.471-7.738-7.738S5.733,2.262,10,2.262c4.267,0,7.738,3.471,7.738,7.738S14.267,17.738,10,17.738z"/>
</g>
</svg>
