<?xml version="1.0" encoding="utf-8"?>
<!-- Generator: Adobe Illustrator 21.1.0, SVG Export Plug-In . SVG Version: 6.00 Build 0)  -->
<svg version="1.1" id="Layer_1" xmlns="http://www.w3.org/2000/svg" xmlns:xlink="http://www.w3.org/1999/xlink" x="0px" y="0px"
	 viewBox="0 0 20 20" style="enable-background:new 0 0 20 20;" xml:space="preserve">
<style type="text/css">
	.st0{opacity:0.33;}
	.st1{fill:#EDEDED;}
</style>
<g class="st0">
	<path d="M16.894,4.837C16.872,4.784,16.84,4.736,16.8,4.696l-2.102-2.102c-0.04-0.04-0.088-0.072-0.141-0.095
		c-0.053-0.022-0.11-0.034-0.168-0.034h-3.501c-0.241,0-0.437,0.195-0.437,0.437v2.366h-0.269c-0.241,0-0.437,0.195-0.437,0.437
		c0,0.241,0.195,0.437,0.437,0.437h0.269v3.776c0,0.241,0.195,0.437,0.437,0.437h5.604c0.241,0,0.437-0.195,0.437-0.437V5.005
		C16.928,4.947,16.916,4.89,16.894,4.837z M14.826,3.956l0.612,0.613h-0.612V3.956z M11.325,9.481V3.339h2.628v1.667
		c0,0.241,0.195,0.437,0.437,0.437h1.666v4.039H11.325z"/>
	<path d="M16.808,13.826c-0.003-0.003-0.004-0.007-0.007-0.01l0,0c0,0-0.001-0.001-0.001-0.001l-2.101-2.109c0,0,0,0-0.001,0
		c-0.04-0.04-0.088-0.072-0.14-0.094c-0.053-0.022-0.11-0.034-0.169-0.034h-3.501c-0.241,0-0.437,0.195-0.437,0.437v3.777h-0.269
		c-0.241,0-0.437,0.195-0.437,0.437c0,0.241,0.195,0.437,0.437,0.437h0.269v2.365c0,0.241,0.195,0.437,0.437,0.437h5.604
		c0.241,0,0.437-0.195,0.437-0.437v-4.905c0-0.058-0.012-0.115-0.034-0.167C16.874,13.907,16.844,13.864,16.808,13.826z
		 M14.826,13.07l0.614,0.617h-0.614V13.07z M11.325,18.592V12.45h2.628v1.674c0,0.241,0.195,0.437,0.437,0.437h1.666v4.032H11.325z"
		/>
	<path d="M1.578,4.038c0.241,0,0.437-0.195,0.437-0.437V2.902c0-0.241-0.195-0.437-0.437-0.437S1.141,2.661,1.141,2.902v0.699
		C1.141,3.842,1.336,4.038,1.578,4.038z"/>
	<path d="M1.578,8.244c0.241,0,0.437-0.195,0.437-0.437V7.108c0-0.241-0.195-0.437-0.437-0.437S1.141,6.867,1.141,7.108v0.699
		C1.141,8.049,1.336,8.244,1.578,8.244z"/>
	<path d="M2.276,5.268H2.014V5.005c0-0.241-0.195-0.437-0.437-0.437S1.141,4.764,1.141,5.005v0.699c0,0.241,0.195,0.437,0.437,0.437
		h0.699c0.241,0,0.437-0.195,0.437-0.437C2.713,5.463,2.518,5.268,2.276,5.268z"/>
	<path d="M1.578,10.347c0.241,0,0.437-0.195,0.437-0.437V9.212c0-0.241-0.195-0.437-0.437-0.437S1.141,8.97,1.141,9.212V9.91
		C1.141,10.152,1.336,10.347,1.578,10.347z"/>
	<path d="M1.578,12.457c0.241,0,0.437-0.195,0.437-0.437v-0.705c0-0.241-0.195-0.437-0.437-0.437s-0.437,0.195-0.437,0.437v0.705
		C1.141,12.261,1.336,12.457,1.578,12.457z"/>
	<path d="M1.578,14.56c0.241,0,0.437-0.195,0.437-0.437v-0.706c0-0.241-0.195-0.437-0.437-0.437s-0.437,0.195-0.437,0.437v0.706
		C1.141,14.365,1.336,14.56,1.578,14.56z"/>
	<path d="M2.276,15.791H2.014v-0.269c0-0.241-0.195-0.437-0.437-0.437s-0.437,0.195-0.437,0.437v0.706
		c0,0.241,0.195,0.437,0.437,0.437h0.699c0.241,0,0.437-0.195,0.437-0.437C2.713,15.986,2.518,15.791,2.276,15.791z"/>
	<path d="M6.675,5.268H5.976c-0.241,0-0.437,0.195-0.437,0.437c0,0.241,0.195,0.437,0.437,0.437h0.699
		c0.241,0,0.437-0.195,0.437-0.437C7.112,5.463,6.916,5.268,6.675,5.268z"/>
	<path d="M8.778,5.268H8.079c-0.241,0-0.437,0.195-0.437,0.437c0,0.241,0.195,0.437,0.437,0.437h0.699
		c0.241,0,0.437-0.195,0.437-0.437C9.215,5.463,9.019,5.268,8.778,5.268z"/>
	<path d="M6.675,15.791H5.976c-0.241,0-0.437,0.195-0.437,0.437c0,0.241,0.195,0.437,0.437,0.437h0.699
		c0.241,0,0.437-0.195,0.437-0.437C7.112,15.986,6.916,15.791,6.675,15.791z"/>
	<path d="M4.506,5.268H3.806c-0.241,0-0.437,0.195-0.437,0.437c0,0.241,0.195,0.437,0.437,0.437h0.699
		c0.241,0,0.437-0.195,0.437-0.437C4.942,5.463,4.747,5.268,4.506,5.268z"/>
	<path d="M4.506,15.791H3.806c-0.241,0-0.437,0.195-0.437,0.437c0,0.241,0.195,0.437,0.437,0.437h0.699
		c0.241,0,0.437-0.195,0.437-0.437C4.942,15.986,4.747,15.791,4.506,15.791z"/>
	<path d="M8.778,15.791H8.079c-0.241,0-0.437,0.195-0.437,0.437c0,0.241,0.195,0.437,0.437,0.437h0.699
		c0.241,0,0.437-0.195,0.437-0.437C9.215,15.986,9.019,15.791,8.778,15.791z"/>
</g>
<g>
	<path class="st1" d="M17.86,3.872c-0.022-0.053-0.054-0.101-0.095-0.141l-2.102-2.102c-0.04-0.04-0.088-0.072-0.141-0.095
		C15.47,1.512,15.413,1.5,15.354,1.5h-3.501c-0.241,0-0.437,0.195-0.437,0.437v2.366h-0.269c-0.241,0-0.437,0.195-0.437,0.437
		c0,0.241,0.195,0.437,0.437,0.437h0.269v3.776c0,0.241,0.195,0.437,0.437,0.437h5.604c0.241,0,0.437-0.195,0.437-0.437V4.04
		C17.894,3.982,17.882,3.925,17.86,3.872z M15.791,2.991l0.612,0.613h-0.612V2.991z M12.29,8.515V2.373h2.628V4.04
		c0,0.241,0.195,0.437,0.437,0.437h1.666v4.039H12.29z"/>
	<path class="st1" d="M17.773,12.86c-0.003-0.003-0.004-0.007-0.007-0.01l0,0c0,0-0.001-0.001-0.001-0.001l-2.101-2.109
		c0,0,0,0-0.001,0c-0.04-0.04-0.088-0.072-0.14-0.094c-0.053-0.022-0.11-0.034-0.169-0.034h-3.501c-0.241,0-0.437,0.195-0.437,0.437
		v3.777h-0.269c-0.241,0-0.437,0.195-0.437,0.437c0,0.241,0.195,0.437,0.437,0.437h0.269v2.365c0,0.241,0.195,0.437,0.437,0.437
		h5.604c0.241,0,0.437-0.195,0.437-0.437v-4.905c0-0.058-0.012-0.115-0.034-0.167C17.839,12.942,17.809,12.898,17.773,12.86z
		 M15.791,12.105l0.614,0.617h-0.614V12.105z M12.29,17.627v-6.142h2.628v1.674c0,0.241,0.195,0.437,0.437,0.437h1.666v4.032H12.29z
		"/>
	<path class="st1" d="M2.543,3.072c0.241,0,0.437-0.195,0.437-0.437V1.937C2.98,1.695,2.784,1.5,2.543,1.5S2.106,1.695,2.106,1.937
		v0.699C2.106,2.877,2.302,3.072,2.543,3.072z"/>
	<path class="st1" d="M2.543,7.278c0.241,0,0.437-0.195,0.437-0.437V6.143c0-0.241-0.195-0.437-0.437-0.437S2.106,5.902,2.106,6.143
		v0.699C2.106,7.083,2.302,7.278,2.543,7.278z"/>
	<path class="st1" d="M3.242,4.302H2.98V4.04c0-0.241-0.195-0.437-0.437-0.437S2.106,3.799,2.106,4.04v0.699
		c0,0.241,0.195,0.437,0.437,0.437h0.699c0.241,0,0.437-0.195,0.437-0.437C3.678,4.497,3.483,4.302,3.242,4.302z"/>
	<path class="st1" d="M2.543,9.381c0.241,0,0.437-0.195,0.437-0.437V8.246c0-0.241-0.195-0.437-0.437-0.437S2.106,8.005,2.106,8.246
		v0.699C2.106,9.186,2.302,9.381,2.543,9.381z"/>
	<path class="st1" d="M2.543,11.491c0.241,0,0.437-0.195,0.437-0.437V10.35c0-0.241-0.195-0.437-0.437-0.437
		s-0.437,0.195-0.437,0.437v0.705C2.106,11.296,2.302,11.491,2.543,11.491z"/>
	<path class="st1" d="M2.543,13.595c0.241,0,0.437-0.195,0.437-0.437v-0.706c0-0.241-0.195-0.437-0.437-0.437
		s-0.437,0.195-0.437,0.437v0.706C2.106,13.399,2.302,13.595,2.543,13.595z"/>
	<path class="st1" d="M3.242,14.825H2.98v-0.269c0-0.241-0.195-0.437-0.437-0.437s-0.437,0.195-0.437,0.437v0.706
		c0,0.241,0.195,0.437,0.437,0.437h0.699c0.241,0,0.437-0.195,0.437-0.437C3.678,15.02,3.483,14.825,3.242,14.825z"/>
	<path class="st1" d="M7.641,4.302H6.941c-0.241,0-0.437,0.195-0.437,0.437c0,0.241,0.195,0.437,0.437,0.437h0.699
		c0.241,0,0.437-0.195,0.437-0.437C8.077,4.497,7.882,4.302,7.641,4.302z"/>
	<path class="st1" d="M9.744,4.302H9.045c-0.241,0-0.437,0.195-0.437,0.437c0,0.241,0.195,0.437,0.437,0.437h0.699
		c0.241,0,0.437-0.195,0.437-0.437C10.18,4.497,9.985,4.302,9.744,4.302z"/>
	<path class="st1" d="M7.641,14.825H6.941c-0.241,0-0.437,0.195-0.437,0.437c0,0.241,0.195,0.437,0.437,0.437h0.699
		c0.241,0,0.437-0.195,0.437-0.437C8.077,15.02,7.882,14.825,7.641,14.825z"/>
	<path class="st1" d="M5.471,4.302H4.772c-0.241,0-0.437,0.195-0.437,0.437c0,0.241,0.195,0.437,0.437,0.437h0.699
		c0.241,0,0.437-0.195,0.437-0.437C5.908,4.497,5.712,4.302,5.471,4.302z"/>
	<path class="st1" d="M5.471,14.825H4.772c-0.241,0-0.437,0.195-0.437,0.437c0,0.241,0.195,0.437,0.437,0.437h0.699
		c0.241,0,0.437-0.195,0.437-0.437C5.908,15.02,5.712,14.825,5.471,14.825z"/>
	<path class="st1" d="M9.744,14.825H9.045c-0.241,0-0.437,0.195-0.437,0.437c0,0.241,0.195,0.437,0.437,0.437h0.699
		c0.241,0,0.437-0.195,0.437-0.437C10.18,15.02,9.985,14.825,9.744,14.825z"/>
</g>
</svg>
