<?xml version="1.0" encoding="utf-8"?>
<!-- Generator: Adobe Illustrator 21.1.0, SVG Export Plug-In . SVG Version: 6.00 Build 0)  -->
<svg version="1.1" id="Layer_2" xmlns="http://www.w3.org/2000/svg" xmlns:xlink="http://www.w3.org/1999/xlink" x="0px" y="0px"
	 viewBox="0 0 22 22" style="enable-background:new 0 0 22 22;" xml:space="preserve">
<style type="text/css">
	.st0{opacity:0.33;}
	.st1{fill:#EDEDED;}
</style>
<g class="st0">
	<path d="M10.553,12.523c0.682,0,1.238-0.577,1.238-1.287v-0.594c0-0.164-0.128-0.297-0.286-0.297c-0.158,0-0.286,0.133-0.286,0.297
		v0.594c0,0.382-0.299,0.693-0.666,0.693c-0.367,0-0.666-0.311-0.666-0.693V7.87c0-0.164-0.128-0.297-0.286-0.297
		c-0.158,0-0.286,0.133-0.286,0.297v3.366h0C9.316,11.945,9.871,12.523,10.553,12.523z"/>
	<path d="M11.505,10.048c0.158,0,0.286-0.132,0.286-0.295V7.199c0-0.704-0.555-1.277-1.238-1.277S9.316,6.495,9.316,7.199
		c0,0.163,0.128,0.295,0.286,0.295c0.158,0,0.286-0.132,0.286-0.295c0-0.379,0.299-0.688,0.666-0.688
		c0.367,0,0.666,0.308,0.666,0.688v2.554C11.22,9.916,11.348,10.048,11.505,10.048z"/>
	<path d="M10.553,16.648c0.682,0,1.238-0.555,1.238-1.237c0-0.682-0.555-1.238-1.238-1.238s-1.238,0.555-1.238,1.238
		C9.316,16.093,9.871,16.648,10.553,16.648z M10.553,14.744c0.367,0,0.666,0.299,0.666,0.666s-0.299,0.666-0.666,0.666
		c-0.367,0-0.666-0.299-0.666-0.666S10.186,14.744,10.553,14.744z"/>
	<path d="M11.621,19.379l6.83-6.83c0.227-0.227,0.352-0.53,0.352-0.851c0-0.322-0.125-0.624-0.352-0.851L11.405,3.8
		c-0.227-0.227-0.53-0.352-0.851-0.352S9.929,3.573,9.702,3.8l-7.046,7.046c-0.227,0.227-0.352,0.53-0.352,0.851
		c0,0.322,0.125,0.624,0.352,0.851l7.046,7.046c0.227,0.227,0.529,0.352,0.851,0.352h0c0.175,0,0.317-0.142,0.317-0.317
		c0-0.175-0.142-0.317-0.317-0.317c-0.153,0-0.296-0.059-0.404-0.167l-7.046-7.046c-0.108-0.108-0.167-0.251-0.167-0.404
		c0-0.153,0.059-0.296,0.167-0.404l7.046-7.046c0.108-0.108,0.251-0.167,0.404-0.167s0.296,0.059,0.404,0.167l7.046,7.046
		c0.108,0.108,0.167,0.251,0.167,0.404c0,0.153-0.059,0.296-0.167,0.404l-6.83,6.83c-0.124,0.124-0.124,0.324,0,0.448
		C11.297,19.502,11.498,19.502,11.621,19.379z"/>
	<path d="M19.605,9.837l-6.86-7.155c-1.131-1.179-2.971-1.18-4.102,0L8.169,3.177c-0.12,0.126-0.12,0.329,0,0.455
		c0.12,0.125,0.315,0.126,0.436,0l0.475-0.495c0.891-0.929,2.34-0.929,3.23,0l6.86,7.155c0.431,0.449,0.668,1.047,0.668,1.685
		c0,0.637-0.237,1.235-0.668,1.685l-3.92,4.088c-0.12,0.126-0.12,0.329,0,0.455c0.06,0.063,0.139,0.094,0.218,0.094
		c0.079,0,0.158-0.031,0.218-0.094l3.92-4.088c0.547-0.571,0.848-1.33,0.848-2.139C20.453,11.167,20.152,10.408,19.605,9.837z"/>
	<path d="M14.152,18.222l-2.119,2.102c-0.431,0.427-1.005,0.662-1.616,0.662c-0.611,0-1.185-0.235-1.616-0.662l-6.863-6.805
		c-0.431-0.427-0.668-0.996-0.668-1.602c0-0.606,0.237-1.175,0.668-1.602l5.566-5.519c0.12-0.119,0.12-0.313,0-0.432
		c-0.12-0.119-0.316-0.119-0.436,0L1.502,9.881c-0.547,0.543-0.849,1.265-0.849,2.035c0,0.769,0.301,1.492,0.849,2.035l6.863,6.805
		c0.547,0.543,1.276,0.842,2.052,0.842c0.776,0,1.505-0.299,2.052-0.842l2.119-2.102c0.12-0.119,0.12-0.313,0-0.432
		C14.468,18.103,14.272,18.103,14.152,18.222z"/>
</g>
<g>
	<path class="st1" d="M11,11.825c0.682,0,1.238-0.577,1.238-1.287V9.944c0-0.164-0.128-0.297-0.286-0.297
		c-0.158,0-0.286,0.133-0.286,0.297v0.594c0,0.382-0.299,0.693-0.666,0.693c-0.367,0-0.666-0.311-0.666-0.693V7.172
		c0-0.164-0.128-0.297-0.286-0.297c-0.158,0-0.286,0.133-0.286,0.297v3.366h0C9.762,11.248,10.318,11.825,11,11.825z"/>
	<path class="st1" d="M11.952,9.35c0.158,0,0.286-0.132,0.286-0.295V6.502c0-0.704-0.555-1.277-1.238-1.277S9.762,5.798,9.762,6.502
		c0,0.163,0.128,0.295,0.286,0.295c0.158,0,0.286-0.132,0.286-0.295c0-0.379,0.299-0.688,0.666-0.688
		c0.367,0,0.666,0.308,0.666,0.688v2.554C11.666,9.218,11.794,9.35,11.952,9.35z"/>
	<path class="st1" d="M11,15.95c0.682,0,1.238-0.555,1.238-1.237c0-0.682-0.555-1.238-1.238-1.238s-1.238,0.555-1.238,1.238
		C9.762,15.395,10.318,15.95,11,15.95z M11,14.046c0.367,0,0.666,0.299,0.666,0.666c0,0.367-0.299,0.666-0.666,0.666
		c-0.367,0-0.666-0.299-0.666-0.666C10.334,14.345,10.633,14.046,11,14.046z"/>
	<path class="st1" d="M12.068,18.681l6.83-6.83c0.227-0.227,0.352-0.53,0.352-0.851c0-0.322-0.125-0.624-0.352-0.851l-7.046-7.046
		C11.624,2.875,11.322,2.75,11,2.75s-0.624,0.125-0.851,0.352l-7.046,7.046C2.875,10.376,2.75,10.678,2.75,11
		c0,0.322,0.125,0.624,0.352,0.851l7.046,7.046c0.227,0.227,0.529,0.352,0.851,0.352h0c0.175,0,0.317-0.142,0.317-0.317
		c0-0.175-0.142-0.317-0.317-0.317c-0.153,0-0.296-0.059-0.404-0.167L3.55,11.404C3.442,11.296,3.383,11.153,3.383,11
		c0-0.153,0.059-0.296,0.167-0.404l7.046-7.046C10.704,3.442,10.847,3.383,11,3.383s0.296,0.059,0.404,0.167l7.046,7.046
		c0.108,0.108,0.167,0.251,0.167,0.404c0,0.153-0.059,0.296-0.167,0.404l-6.83,6.83c-0.124,0.124-0.124,0.324,0,0.448
		C11.744,18.805,11.944,18.805,12.068,18.681z"/>
	<path class="st1" d="M20.052,9.139l-6.86-7.155c-1.131-1.179-2.971-1.18-4.102,0L8.615,2.48c-0.12,0.126-0.12,0.329,0,0.455
		c0.12,0.125,0.315,0.126,0.436,0l0.475-0.495c0.891-0.929,2.34-0.929,3.23,0l6.86,7.155c0.431,0.449,0.668,1.047,0.668,1.685
		c0,0.637-0.237,1.235-0.668,1.685l-3.92,4.088c-0.12,0.126-0.12,0.329,0,0.455c0.06,0.063,0.139,0.094,0.218,0.094
		c0.079,0,0.158-0.031,0.218-0.094l3.92-4.088c0.547-0.571,0.848-1.33,0.848-2.139C20.9,10.47,20.599,9.71,20.052,9.139z"/>
	<path class="st1" d="M14.599,17.525l-2.119,2.102c-0.431,0.427-1.005,0.662-1.616,0.662c-0.611,0-1.185-0.235-1.616-0.662
		l-6.863-6.805c-0.431-0.427-0.668-0.996-0.668-1.602c0-0.606,0.237-1.175,0.668-1.602L7.95,4.097c0.12-0.119,0.12-0.313,0-0.432
		c-0.12-0.119-0.316-0.119-0.436,0L1.949,9.184C1.401,9.726,1.1,10.449,1.1,11.218c0,0.769,0.301,1.492,0.849,2.035l6.863,6.805
		c0.547,0.543,1.276,0.842,2.052,0.842s1.505-0.299,2.052-0.842l2.119-2.102c0.12-0.119,0.12-0.313,0-0.432
		C14.914,17.405,14.719,17.405,14.599,17.525z"/>
</g>
</svg>
