<?xml version="1.0" encoding="utf-8"?>
<!-- Generator: Adobe Illustrator 21.1.0, SVG Export Plug-In . SVG Version: 6.00 Build 0)  -->
<svg version="1.1" id="Layer_1" xmlns="http://www.w3.org/2000/svg" xmlns:xlink="http://www.w3.org/1999/xlink" x="0px" y="0px"
	 viewBox="0 0 20 20" style="enable-background:new 0 0 20 20;" xml:space="preserve">
<style type="text/css">
	.st0{opacity:0.33;}
	.st1{fill:#EDEDED;}
</style>
<g id="Layer_1_2_" class="st0">
</g>
<g>
	<g id="security_1_" class="st0">
		<g>
			<path d="M8.926,12.167c-0.73,0-1.324,0.594-1.324,1.324c0,0.369,0.148,0.712,0.416,0.964c0.065,0.061,0.102,0.147,0.102,0.235
				v1.336c0,0.443,0.361,0.804,0.805,0.804c0.443,0,0.805-0.361,0.805-0.804v-1.336c0-0.088,0.037-0.173,0.102-0.235l0,0
				c0.269-0.253,0.416-0.596,0.415-0.964C10.25,12.76,9.657,12.167,8.926,12.167z"/>
			<path d="M14.644,9.456h-1.93V6.37c0-2.088-1.7-3.787-3.788-3.787S5.14,4.282,5.14,6.37v3.086H3.209
				c-0.73,0-1.325,0.594-1.325,1.326v7.476c0,0.73,0.594,1.326,1.325,1.326h11.434c0.73,0,1.326-0.595,1.326-1.326v-7.476
				C15.97,10.051,15.374,9.456,14.644,9.456z M6.179,6.37c0-1.515,1.232-2.748,2.748-2.748s2.748,1.232,2.748,2.748v3.086H6.179
				C6.179,9.456,6.179,6.37,6.179,6.37z M14.93,18.258c0,0.158-0.129,0.287-0.287,0.287H3.209c-0.157,0-0.287-0.129-0.287-0.287
				v-7.476c0-0.157,0.129-0.287,0.287-0.287h11.434c0.158,0,0.287,0.129,0.287,0.287V18.258z"/>
		</g>
	</g>
	<g id="security">
		<g>
			<path class="st1" d="M10,11.083c-0.73,0-1.324,0.594-1.324,1.324c0,0.369,0.148,0.712,0.416,0.964
				c0.065,0.061,0.102,0.147,0.102,0.235v1.336c0,0.443,0.361,0.804,0.805,0.804c0.443,0,0.805-0.361,0.805-0.804v-1.336
				c0-0.088,0.037-0.173,0.102-0.235l0,0c0.269-0.253,0.416-0.596,0.415-0.964C11.324,11.677,10.73,11.083,10,11.083z"/>
			<path class="st1" d="M15.718,8.373h-1.93V5.287c0-2.088-1.7-3.787-3.788-3.787S6.213,3.199,6.213,5.287v3.086H4.282
				c-0.73,0-1.325,0.594-1.325,1.326v7.476c0,0.73,0.594,1.326,1.325,1.326h11.434c0.73,0,1.326-0.595,1.326-1.326V9.698
				C17.043,8.968,16.448,8.373,15.718,8.373z M7.252,5.287c0-1.515,1.232-2.748,2.748-2.748s2.748,1.232,2.748,2.748v3.086H7.252
				C7.252,8.373,7.252,5.287,7.252,5.287z M16.004,17.174c0,0.158-0.129,0.287-0.287,0.287H4.282c-0.157,0-0.287-0.129-0.287-0.287
				V9.698c0-0.157,0.129-0.287,0.287-0.287h11.434c0.158,0,0.287,0.129,0.287,0.287V17.174z"/>
		</g>
	</g>
	<g id="Layer_1_1_">
	</g>
</g>
</svg>
