<?xml version="1.0" encoding="utf-8"?>
<!-- Generator: Adobe Illustrator 21.1.0, SVG Export Plug-In . SVG Version: 6.00 Build 0)  -->
<svg version="1.1" id="Layer_3" xmlns="http://www.w3.org/2000/svg" xmlns:xlink="http://www.w3.org/1999/xlink" x="0px" y="0px"
	 viewBox="0 0 22 22" style="enable-background:new 0 0 22 22;" xml:space="preserve">
<style type="text/css">
	.st0{opacity:0.33;}
	.st1{fill:#888B90;}
</style>
<g class="st0">
	<path d="M3.207,10.208l-0.086-0.001L2.415,10.21H2.109c-0.803,0-1.457,0.653-1.457,1.456v1.575c0,0.802,0.653,1.457,1.455,1.457
		l1.333-0.002c0.286,0.074,0.507,0.247,0.604,0.477c0.051,0.12,0.07,0.258,0.054,0.398c-0.018,0.15-0.054,0.269-0.113,0.365
		c-0.012,0.017-0.03,0.031-0.067,0.066L3.15,16.772c-0.275,0.275-0.428,0.641-0.428,1.03c0,0.39,0.151,0.756,0.426,1.03l1.115,1.115
		c0.535,0.533,1.526,0.531,2.058,0l0.941-0.944c0.256-0.15,0.537-0.182,0.764-0.091c0.122,0.05,0.234,0.135,0.321,0.244
		c0.094,0.118,0.152,0.229,0.178,0.339c0.004,0.022,0.001,0.046,0,0.083l-0.001,0.091l0.003,0.801v0.21
		c0,0.803,0.653,1.458,1.456,1.458h1.575c0.802,0,1.457-0.653,1.457-1.456l-0.002-1.334c0.074-0.285,0.247-0.506,0.477-0.603
		c0.121-0.052,0.283-0.063,0.398-0.055c0.151,0.019,0.27,0.056,0.364,0.113c0.009,0.005,0.039,0.037,0.061,0.061l0.777,0.775
		c0.537,0.537,1.526,0.537,2.061,0.002l1.114-1.114c0.568-0.568,0.568-1.491,0.001-2.058l-0.944-0.942
		c-0.15-0.254-0.183-0.532-0.091-0.763c0.049-0.121,0.134-0.233,0.244-0.32c0.121-0.098,0.226-0.151,0.363-0.179l0.14,0.002
		l0.703-0.003l0.317,0.001c0.803,0,1.458-0.653,1.458-1.457l-0.003-1.574c0-0.803-0.653-1.457-1.456-1.457l-1.333,0.002
		c-0.285-0.073-0.506-0.247-0.604-0.476c-0.051-0.121-0.07-0.259-0.054-0.4c0.018-0.149,0.055-0.268,0.113-0.364
		c0.007-0.01,0.034-0.036,0.079-0.079l0.759-0.759c0.568-0.569,0.569-1.493,0.001-2.06l-1.114-1.113
		c-0.53-0.534-1.524-0.534-2.058-0.002l-0.942,0.945c-0.249,0.147-0.534,0.183-0.763,0.09c-0.122-0.049-0.234-0.134-0.32-0.243
		c-0.095-0.12-0.153-0.231-0.178-0.341c-0.004-0.022-0.001-0.046,0-0.081l0.001-0.091l-0.003-0.801l0.001-0.21
		c0-0.803-0.653-1.457-1.457-1.457H9.549c-0.803,0-1.457,0.653-1.457,1.456l0.002,1.333C8.022,5.41,7.847,5.631,7.617,5.729
		C7.496,5.78,7.37,5.801,7.219,5.783C7.068,5.765,6.949,5.728,6.855,5.67C6.845,5.664,6.813,5.63,6.778,5.593l-0.763-0.76
		c-0.533-0.534-1.525-0.534-2.059,0L2.842,5.946C2.275,6.513,2.275,7.437,2.841,8.004l0.944,0.942C3.935,9.2,3.969,9.479,3.875,9.71
		c-0.048,0.122-0.132,0.234-0.243,0.321c-0.118,0.094-0.229,0.152-0.359,0.179L3.207,10.208z M11.539,4.872
		c-0.002,0.093-0.005,0.207,0.028,0.344c0.061,0.261,0.183,0.507,0.375,0.749c0.2,0.252,0.459,0.447,0.748,0.564
		c0.553,0.222,1.188,0.165,1.793-0.235l1.038-1.028c0.148-0.148,0.441-0.146,0.585,0L17.22,6.38c0.161,0.162,0.161,0.424,0,0.584
		l-0.717,0.717l-0.044,0.043c-0.063,0.061-0.15,0.144-0.225,0.265c-0.144,0.231-0.23,0.491-0.263,0.795
		c-0.036,0.322,0.009,0.643,0.131,0.927c0.238,0.556,0.741,0.956,1.434,1.102l1.46,0.006c0.228,0,0.414,0.185,0.414,0.414
		l0.001,1.573c-0.001,0.229-0.185,0.416-0.413,0.416l-0.32-0.001l-0.699,0.003l-0.135-0.003c-0.075,0-0.166,0.004-0.27,0.029
		c-0.263,0.061-0.508,0.184-0.748,0.375c-0.251,0.199-0.446,0.458-0.565,0.75c-0.226,0.561-0.151,1.199,0.236,1.792l1.029,1.038
		c0.161,0.161,0.161,0.425,0,0.585l-1.113,1.113c-0.149,0.147-0.442,0.144-0.586,0.001l-0.145-0.146
		c-0.109-0.11-0.221-0.221-0.33-0.327l-0.243-0.242l-0.051-0.052c-0.062-0.065-0.141-0.146-0.256-0.217
		c-0.227-0.142-0.487-0.228-0.798-0.266c-0.323-0.036-0.637,0.009-0.926,0.133c-0.556,0.238-0.955,0.742-1.1,1.434l-0.007,1.46
		c0,0.228-0.185,0.414-0.414,0.414H9.981c-0.228,0-0.413-0.185-0.413-0.414l-0.002-1.073c0.002-0.082,0.006-0.207-0.028-0.349
		c-0.061-0.263-0.184-0.508-0.375-0.749c-0.2-0.252-0.458-0.447-0.747-0.563c-0.21-0.086-0.435-0.129-0.667-0.129
		c-0.375,0-0.751,0.114-1.127,0.363l-1.038,1.029c-0.145,0.146-0.439,0.144-0.584,0l-1.113-1.114
		c-0.079-0.078-0.122-0.183-0.122-0.292c0-0.111,0.043-0.216,0.122-0.294l0.757-0.76c0.06-0.056,0.149-0.141,0.228-0.266
		c0.142-0.229,0.228-0.489,0.264-0.796c0.036-0.318-0.009-0.639-0.131-0.927c-0.239-0.555-0.742-0.955-1.435-1.101l-1.461-0.006
		c-0.228,0-0.414-0.185-0.414-0.414v-1.574c0-0.228,0.185-0.413,0.413-0.413h1.166c0.062,0,0.148-0.003,0.257-0.029
		c0.263-0.061,0.509-0.185,0.749-0.375c0.252-0.2,0.446-0.459,0.564-0.75c0.226-0.561,0.152-1.199-0.235-1.794L3.58,7.267
		c-0.161-0.162-0.161-0.424,0-0.585l1.115-1.114c0.145-0.145,0.438-0.146,0.583,0l0.76,0.757c0.061,0.064,0.144,0.152,0.267,0.228
		c0.228,0.143,0.489,0.23,0.793,0.264c0.323,0.04,0.643-0.007,0.929-0.129c0.557-0.239,0.956-0.742,1.102-1.435l0.007-1.461
		c0-0.228,0.185-0.413,0.413-0.413h1.575c0.228,0,0.414,0.185,0.414,0.412l-0.001,0.207l0.003,0.809L11.539,4.872z M16.629,7.902
		L16.629,7.902L16.629,7.902L16.629,7.902z"/>
	<path d="M10.552,7.057c-2.856,0-5.18,2.323-5.18,5.179s2.324,5.181,5.18,5.181s5.18-2.324,5.18-5.181
		C15.733,9.38,13.409,7.057,10.552,7.057z M14.69,12.237c0,2.282-1.857,4.138-4.137,4.138c-2.282,0-4.138-1.857-4.138-4.138
		c0-2.281,1.856-4.137,4.138-4.137C12.833,8.099,14.69,9.956,14.69,12.237z"/>
</g>
<g>
	<path class="st1" d="M3.654,8.971L3.568,8.97L2.861,8.973H2.556c-0.803,0-1.457,0.653-1.457,1.456v1.575
		c0,0.802,0.653,1.457,1.455,1.457l1.333-0.002c0.286,0.074,0.507,0.247,0.604,0.477c0.051,0.12,0.07,0.258,0.054,0.398
		c-0.018,0.15-0.054,0.269-0.113,0.365c-0.012,0.017-0.03,0.031-0.067,0.066l-0.769,0.771c-0.275,0.275-0.428,0.641-0.428,1.03
		c0,0.39,0.151,0.756,0.426,1.03l1.115,1.115c0.535,0.533,1.526,0.531,2.058,0l0.941-0.944c0.256-0.15,0.537-0.182,0.764-0.091
		c0.122,0.05,0.234,0.135,0.321,0.244c0.094,0.118,0.152,0.229,0.178,0.339c0.004,0.022,0.001,0.046,0,0.083l-0.001,0.091
		l0.003,0.801v0.21c0,0.803,0.653,1.458,1.456,1.458h1.575c0.802,0,1.457-0.653,1.457-1.456l-0.002-1.334
		c0.074-0.285,0.247-0.506,0.477-0.603c0.121-0.052,0.283-0.063,0.398-0.055c0.151,0.019,0.27,0.056,0.364,0.113
		c0.009,0.005,0.039,0.037,0.061,0.061l0.777,0.775c0.537,0.537,1.526,0.537,2.061,0.002l1.114-1.114
		c0.568-0.568,0.568-1.491,0.001-2.058l-0.944-0.942c-0.15-0.254-0.183-0.532-0.091-0.763c0.049-0.121,0.134-0.233,0.244-0.32
		c0.121-0.098,0.226-0.151,0.363-0.179l0.14,0.002l0.703-0.003l0.317,0.001c0.803,0,1.458-0.653,1.458-1.457l-0.003-1.574
		c0-0.803-0.653-1.457-1.456-1.457l-1.333,0.002c-0.285-0.073-0.506-0.247-0.604-0.476c-0.051-0.121-0.07-0.259-0.054-0.4
		c0.018-0.149,0.055-0.268,0.113-0.364c0.007-0.01,0.034-0.036,0.079-0.079l0.759-0.759c0.568-0.569,0.569-1.493,0.001-2.06
		l-1.114-1.113c-0.53-0.534-1.524-0.534-2.058-0.002l-0.942,0.945c-0.249,0.147-0.534,0.183-0.763,0.09
		c-0.122-0.049-0.234-0.134-0.32-0.243c-0.095-0.12-0.153-0.231-0.178-0.341c-0.004-0.022-0.001-0.046,0-0.081l0.001-0.091
		l-0.003-0.801l0.001-0.21c0-0.803-0.653-1.457-1.457-1.457H9.996c-0.803,0-1.457,0.653-1.457,1.456l0.002,1.333
		C8.468,4.173,8.294,4.394,8.064,4.491C7.943,4.543,7.817,4.563,7.666,4.546C7.515,4.528,7.396,4.49,7.301,4.432
		C7.291,4.426,7.26,4.393,7.224,4.355l-0.763-0.76c-0.533-0.534-1.525-0.534-2.059,0L3.289,4.708
		C2.721,5.276,2.721,6.199,3.288,6.766l0.944,0.942c0.15,0.254,0.183,0.533,0.09,0.764C4.274,8.594,4.19,8.706,4.078,8.793
		C3.96,8.887,3.85,8.945,3.72,8.973L3.654,8.971z M11.986,3.635c-0.002,0.093-0.005,0.207,0.028,0.344
		c0.061,0.261,0.183,0.507,0.376,0.749c0.2,0.252,0.459,0.447,0.748,0.564c0.553,0.222,1.188,0.165,1.793-0.235l1.038-1.028
		c0.148-0.148,0.441-0.146,0.585,0l1.114,1.114c0.161,0.162,0.161,0.424,0,0.584L16.95,6.444l-0.044,0.043
		c-0.063,0.061-0.15,0.144-0.225,0.265c-0.144,0.231-0.23,0.491-0.263,0.795c-0.036,0.322,0.009,0.643,0.131,0.927
		c0.238,0.556,0.741,0.956,1.434,1.102l1.46,0.006c0.228,0,0.414,0.185,0.414,0.414l0.001,1.573
		c-0.001,0.229-0.185,0.416-0.413,0.416l-0.32-0.001l-0.699,0.003l-0.135-0.003c-0.075,0-0.166,0.004-0.27,0.029
		c-0.263,0.061-0.508,0.184-0.748,0.375c-0.251,0.199-0.446,0.458-0.565,0.75c-0.226,0.561-0.151,1.199,0.236,1.792l1.029,1.038
		c0.161,0.161,0.161,0.425,0,0.585l-1.113,1.113c-0.149,0.147-0.442,0.144-0.586,0.001l-0.145-0.146
		c-0.109-0.11-0.221-0.221-0.33-0.327l-0.243-0.242l-0.051-0.052c-0.062-0.065-0.141-0.146-0.256-0.217
		c-0.227-0.142-0.487-0.228-0.798-0.266c-0.323-0.036-0.637,0.009-0.926,0.133c-0.556,0.238-0.955,0.742-1.1,1.434l-0.007,1.46
		c0,0.228-0.185,0.414-0.414,0.414h-1.574c-0.228,0-0.413-0.185-0.413-0.414l-0.002-1.073c0.002-0.082,0.006-0.207-0.028-0.349
		c-0.061-0.263-0.184-0.508-0.375-0.749c-0.2-0.252-0.458-0.447-0.747-0.563c-0.21-0.086-0.435-0.129-0.667-0.129
		c-0.375,0-0.751,0.114-1.127,0.363L6.03,17.971c-0.145,0.146-0.439,0.144-0.584,0l-1.113-1.114
		c-0.079-0.078-0.122-0.183-0.122-0.292c0-0.111,0.043-0.216,0.122-0.294l0.757-0.76c0.06-0.056,0.149-0.141,0.228-0.266
		c0.142-0.229,0.228-0.489,0.264-0.796c0.036-0.318-0.009-0.639-0.131-0.927c-0.239-0.555-0.742-0.955-1.435-1.101l-1.461-0.006
		c-0.228,0-0.414-0.185-0.414-0.414v-1.574c0-0.228,0.185-0.413,0.413-0.413H3.72c0.062,0,0.148-0.003,0.257-0.029
		C4.24,9.925,4.485,9.801,4.726,9.61c0.252-0.2,0.446-0.459,0.564-0.75C5.515,8.3,5.441,7.661,5.055,7.067L4.026,6.03
		c-0.161-0.162-0.161-0.424,0-0.585l1.115-1.114c0.145-0.145,0.438-0.146,0.583,0l0.76,0.757c0.061,0.064,0.144,0.152,0.267,0.228
		c0.228,0.143,0.489,0.23,0.793,0.264C7.868,5.62,8.187,5.572,8.474,5.45C9.031,5.212,9.43,4.708,9.576,4.015l0.007-1.461
		c0-0.228,0.185-0.413,0.413-0.413h1.575c0.228,0,0.414,0.185,0.414,0.412l-0.001,0.207l0.003,0.809L11.986,3.635z M17.076,6.665
		L17.076,6.665L17.076,6.665L17.076,6.665z"/>
	<path class="st1" d="M10.999,5.82c-2.856,0-5.18,2.323-5.18,5.179s2.324,5.181,5.18,5.181s5.18-2.324,5.18-5.181
		C16.179,8.143,13.855,5.82,10.999,5.82z M15.136,10.999c0,2.282-1.857,4.138-4.137,4.138c-2.282,0-4.138-1.857-4.138-4.138
		c0-2.281,1.856-4.137,4.138-4.137C13.28,6.862,15.136,8.718,15.136,10.999z"/>
</g>
</svg>
