<?xml version="1.0" encoding="utf-8"?>
<!-- Generator: Adobe Illustrator 21.1.0, SVG Export Plug-In . SVG Version: 6.00 Build 0)  -->
<svg version="1.1" id="Layer_2" xmlns="http://www.w3.org/2000/svg" xmlns:xlink="http://www.w3.org/1999/xlink" x="0px" y="0px"
	 viewBox="0 0 22 22" style="enable-background:new 0 0 22 22;" xml:space="preserve">
<style type="text/css">
	.st0{fill:#FFFFFF;}
</style>
<g>
	<g>
		<path id="SVGID_7_" class="st0" d="M1.8,20.881c-0.375,0-0.681-0.306-0.698-0.697V1.817c0-0.391,0.307-0.698,0.698-0.698h9.191
			c0.391,0,0.698,0.307,0.698,0.698v6.859c0,0.391-0.307,0.698-0.698,0.698s-0.698-0.307-0.698-0.698V2.515H2.498v16.97h7.796
			v-6.162c0-0.391,0.307-0.698,0.698-0.698s0.698,0.307,0.698,0.698v6.86c0,0.391-0.307,0.697-0.698,0.697H1.8V20.881z
			 M15.094,16.098c-0.273-0.272-0.273-0.715,0-0.952l3.404-3.404H6.396c-0.391,0-0.697-0.307-0.697-0.698s0.306-0.698,0.697-0.698
			h12.103L15.094,6.94c-0.273-0.273-0.273-0.715,0-0.987c0.272-0.272,0.715-0.272,0.986,0l4.596,4.596
			c0.034,0.034,0.068,0.068,0.085,0.102c0.017,0,0.017,0.017,0.017,0.017l0.051,0.102c0.017,0,0.017,0.017,0.017,0.034
			c0.017,0.017,0.034,0.051,0.034,0.086c0.017,0.051,0.017,0.085,0.017,0.136s0,0.086-0.017,0.136
			c-0.017,0.034-0.017,0.051-0.034,0.086c-0.017,0-0.017,0.017-0.017,0.034c-0.017,0.017-0.034,0.051-0.051,0.085
			c0,0.017-0.017,0.034-0.017,0.034c-0.017,0.034-0.051,0.068-0.085,0.102l-4.596,4.595c-0.135,0.136-0.306,0.204-0.494,0.204
			C15.4,16.302,15.229,16.234,15.094,16.098z"/>
	</g>
</g>
</svg>
