<?xml version="1.0" encoding="utf-8"?>
<!-- Generator: Adobe Illustrator 21.1.0, SVG Export Plug-In . SVG Version: 6.00 Build 0)  -->
<svg version="1.1" id="Layer_3" xmlns="http://www.w3.org/2000/svg" xmlns:xlink="http://www.w3.org/1999/xlink" x="0px" y="0px"
	 viewBox="0 0 22 22" style="enable-background:new 0 0 22 22;" xml:space="preserve">
<style type="text/css">
	.st0{fill:#888B90;}
</style>
<g>
	<g>
		<path id="SVGID_1_" class="st0" d="M7.563,17.874c0.759,0,1.372-0.618,1.372-1.377c0-0.507-0.278-0.946-0.684-1.185v-1.564
			c0-0.379-0.309-0.688-0.688-0.688c-0.38,0-0.688,0.309-0.688,0.688v1.564c-0.41,0.239-0.688,0.678-0.688,1.185
			C6.186,17.257,6.804,17.874,7.563,17.874z M13.061,11c0.38,0,0.688,0.308,0.688,0.688v8.247c0,0.38-0.308,0.688-0.688,0.688h-11
			c-0.376,0-0.684-0.308-0.684-0.688v-8.247c0-0.38,0.308-0.688,0.684-0.688H13.061z M16.498,0C13.467,0,11,2.467,11,5.498v4.126
			H2.061C0.926,9.623,0,10.55,0,11.688v8.247C0,21.073,0.926,22,2.061,22h11c1.138,0,2.065-0.927,2.065-2.065v-8.247
			c0-1.139-0.927-2.065-2.065-2.065h-0.688V5.498c0-2.272,1.854-4.121,4.126-4.121c2.276,0,4.126,1.849,4.126,4.121v4.126
			c0,0.38,0.308,0.688,0.688,0.688c0.379,0,0.688-0.308,0.688-0.688V5.498C22,2.467,19.532,0,16.498,0z"/>
	</g>
</g>
</svg>
