<?xml version="1.0" encoding="utf-8"?>
<!-- Generator: Adobe Illustrator 21.1.0, SVG Export Plug-In . SVG Version: 6.00 Build 0)  -->
<svg version="1.1" id="Layer_2" xmlns="http://www.w3.org/2000/svg" xmlns:xlink="http://www.w3.org/1999/xlink" x="0px" y="0px"
	 viewBox="0 0 22 22" style="enable-background:new 0 0 22 22;" xml:space="preserve">
<g>
	<defs>
		<path id="SVGID_1_" d="M16.237,13.745l1.236,7.186L11,17.538L4.527,20.93l1.236-7.186l-4.69-5.089l6.691-1.048L11,1.07
			l3.237,6.538l6.691,1.048L16.237,13.745z M21.94,8.303c-0.13-0.372-0.456-0.643-0.846-0.704l-6.141-0.962l-2.99-6.041
			C11.781,0.231,11.408,0,11,0c-0.408,0-0.781,0.231-0.962,0.596l-2.99,6.041L0.906,7.599C0.516,7.66,0.19,7.931,0.06,8.303
			c-0.13,0.372-0.045,0.786,0.223,1.076l4.334,4.702L3.47,20.749c-0.069,0.401,0.096,0.807,0.427,1.046
			C4.084,21.931,4.305,22,4.527,22c0.171,0,0.342-0.041,0.499-0.123L11,18.746l5.974,3.131C17.131,21.959,17.302,22,17.473,22
			c0.223,0,0.444-0.069,0.631-0.204c0.33-0.239,0.496-0.645,0.427-1.046l-1.147-6.668l4.334-4.702
			C21.985,9.089,22.07,8.676,21.94,8.303z"/>
	</defs>
	<use xlink:href="#SVGID_1_"  style="overflow:visible;fill:#888B90;"/>
	<clipPath id="SVGID_2_">
		<use xlink:href="#SVGID_1_"  style="overflow:visible;"/>
	</clipPath>
</g>
</svg>
