<?xml version="1.0" encoding="utf-8"?>
<!-- Generator: Adobe Illustrator 21.1.0, SVG Export Plug-In . SVG Version: 6.00 Build 0)  -->
<svg version="1.1" id="Layer_1" xmlns="http://www.w3.org/2000/svg" xmlns:xlink="http://www.w3.org/1999/xlink" x="0px" y="0px"
	 viewBox="0 0 20 20" style="enable-background:new 0 0 20 20;" xml:space="preserve">
<style type="text/css">
	.st0{opacity:0.33;}
	.st1{fill:#EDEDED;}
</style>
<g>
	<g id="Layer_3_1_" class="st0">
		<g>
			<path d="M9.272,13.515c0.41,0,0.743-0.333,0.743-0.744V9.966c0-0.41-0.333-0.743-0.743-0.743S8.529,9.557,8.529,9.966v2.805
				C8.529,13.182,8.863,13.515,9.272,13.515z"/>
			<path d="M8.596,14.136c-0.178,0.178-0.279,0.426-0.279,0.676c0,0.249,0.103,0.496,0.279,0.674
				c0.178,0.18,0.424,0.281,0.676,0.281c0.251,0,0.498-0.103,0.675-0.28c0.178-0.178,0.28-0.424,0.28-0.675
				c0-0.251-0.103-0.498-0.279-0.675C9.595,13.783,8.954,13.782,8.596,14.136z"/>
			<path d="M6.989,9.642c0-0.059-0.023-0.112-0.069-0.158L6.576,9.141C6.53,9.094,6.477,9.072,6.418,9.072
				c-0.059,0-0.112,0.023-0.158,0.069l-3.198,3.197c-0.046,0.046-0.069,0.099-0.069,0.158c0,0.059,0.023,0.113,0.069,0.158
				l3.197,3.197c0.046,0.046,0.099,0.069,0.158,0.069c0.059,0,0.113-0.023,0.158-0.069l0.343-0.341
				c0.046-0.046,0.069-0.099,0.069-0.158s-0.023-0.113-0.069-0.158l-2.696-2.696L6.918,9.8C6.965,9.753,6.989,9.701,6.989,9.642z"/>
			<path d="M12.285,9.141c-0.046-0.046-0.099-0.069-0.158-0.069c-0.059,0-0.113,0.023-0.158,0.069l-0.342,0.342
				c-0.046,0.046-0.069,0.099-0.069,0.158S11.58,9.754,11.626,9.8l2.696,2.696l-2.696,2.696c-0.046,0.046-0.069,0.099-0.069,0.158
				c0,0.059,0.023,0.112,0.069,0.158l0.342,0.342c0.046,0.046,0.099,0.069,0.158,0.069s0.112-0.023,0.158-0.069l3.198-3.197
				c0.046-0.046,0.068-0.099,0.068-0.158c0-0.06-0.023-0.114-0.068-0.158L12.285,9.141z"/>
			<path d="M17.301,4.204H1.243c-0.252,0-0.458,0.206-0.458,0.458v13.093c0,0.252,0.206,0.458,0.458,0.458h16.058
				c0.252,0,0.458-0.206,0.458-0.458V4.663C17.759,4.41,17.554,4.204,17.301,4.204z M17.061,4.903v2.086H1.484V4.903H17.061z
				 M1.484,17.515V7.688h15.578v9.828L1.484,17.515L1.484,17.515z"/>
		</g>
	</g>
	<g id="Layer_3">
		<g>
			<path class="st1" d="M10.015,12.749c0.41,0,0.743-0.333,0.743-0.744V9.2c0-0.41-0.333-0.743-0.743-0.743
				c-0.41,0-0.743,0.334-0.743,0.743v2.805C9.272,12.415,9.606,12.749,10.015,12.749z"/>
			<path class="st1" d="M9.339,13.37c-0.178,0.178-0.279,0.426-0.279,0.676c0,0.249,0.103,0.496,0.279,0.674
				c0.178,0.18,0.424,0.281,0.676,0.281c0.251,0,0.498-0.103,0.675-0.28c0.178-0.178,0.28-0.424,0.28-0.675
				c0-0.251-0.103-0.498-0.279-0.675C10.338,13.016,9.697,13.015,9.339,13.37z"/>
			<path class="st1" d="M7.732,8.875c0-0.059-0.023-0.112-0.069-0.158L7.319,8.375C7.273,8.328,7.22,8.306,7.161,8.306
				c-0.059,0-0.112,0.023-0.158,0.069l-3.198,3.197c-0.046,0.046-0.069,0.099-0.069,0.158c0,0.059,0.023,0.113,0.069,0.158
				l3.197,3.197c0.046,0.046,0.099,0.069,0.158,0.069c0.059,0,0.113-0.023,0.158-0.069l0.343-0.341
				c0.046-0.046,0.069-0.099,0.069-0.158c0-0.059-0.023-0.113-0.069-0.158l-2.696-2.696l2.696-2.697
				C7.708,8.987,7.732,8.934,7.732,8.875z"/>
			<path class="st1" d="M13.028,8.375c-0.046-0.046-0.099-0.069-0.158-0.069s-0.113,0.023-0.158,0.069l-0.342,0.342
				c-0.046,0.046-0.069,0.099-0.069,0.158c0,0.059,0.023,0.113,0.069,0.158l2.696,2.696l-2.696,2.696
				c-0.046,0.046-0.069,0.099-0.069,0.158c0,0.059,0.023,0.112,0.069,0.158l0.342,0.342c0.046,0.046,0.099,0.069,0.158,0.069
				c0.059,0,0.112-0.023,0.158-0.069l3.198-3.197c0.046-0.046,0.068-0.099,0.068-0.158c0-0.06-0.023-0.114-0.068-0.158L13.028,8.375
				z"/>
			<path class="st1" d="M18.044,3.438H1.986c-0.252,0-0.458,0.206-0.458,0.458v13.093c0,0.252,0.206,0.458,0.458,0.458h16.058
				c0.252,0,0.458-0.206,0.458-0.458V3.897C18.502,3.644,18.297,3.438,18.044,3.438z M17.804,4.137v2.086H2.227V4.137H17.804z
				 M2.227,16.749V6.922h15.578v9.828L2.227,16.749L2.227,16.749z"/>
		</g>
	</g>
</g>
</svg>
